<svg xmlns="http://www.w3.org/2000/svg" version="1.1" xmlns:xlink="http://www.w3.org/1999/xlink" xmlns:svgjs="http://svgjs.com/svgjs" width="1440" height="1200" preserveAspectRatio="none" viewBox="0 0 1440 1200"><g mask="url(&quot;#SvgjsMask2748&quot;)" fill="none"><rect width="1440" height="1200" x="0" y="0" fill="url(#SvgjsRadialGradient2749)"></rect><g mask="url(&quot;#SvgjsMask2750&quot;)"><path d="M714 198L726 210L726 222L726 234L726 246M702 138L714 150L714 162L726 174L726 186L726 198L738 210L738 222M702 114L714 126L714 138L726 150L726 162M714 30L714 42L714 54M702 66L714 78M726 -6L726 6L726 18L714 30L702 42L702 54L702 66L702 78L702 90L702 102L702 114L702 126L702 138L702 150L702 162L714 174L714 186L714 198L714 210L714 222L714 234" stroke="rgba(134, 14, 10, 1)" stroke-width="2"></path><path d="M711 234 a3 3 0 1 0 6 0 a3 3 0 1 0 -6 0zM723 246 a3 3 0 1 0 6 0 a3 3 0 1 0 -6 0zM735 222 a3 3 0 1 0 6 0 a3 3 0 1 0 -6 0zM723 162 a3 3 0 1 0 6 0 a3 3 0 1 0 -6 0zM711 54 a3 3 0 1 0 6 0 a3 3 0 1 0 -6 0zM711 78 a3 3 0 1 0 6 0 a3 3 0 1 0 -6 0z" fill="rgba(134, 14, 10, 1)"></path><path d="M702 354L690 366L690 378L690 390L690 402L690 414M702 294L714 306L714 318L714 330L714 342L714 354L714 366L714 378L714 390L714 402M690 186L690 198L690 210L690 222M702 282L690 294L690 306L690 318L690 330L690 342L690 354M702 270L714 282L714 294L726 306L726 318L726 330L726 342L726 354M702 234L690 246L690 258L690 270L690 282L678 294L678 306L678 318M702 426L690 438L690 450L690 462L690 474M702 246L714 258L714 270L726 282L726 294L738 306M702 450L714 462L714 474L714 486L714 498M690 174L702 186M714 -6L714 6L714 18L702 30L690 42L690 54L690 66L690 78L690 90L690 102L690 114L690 126L690 138L690 150L690 162L690 174L690 186L702 198L702 210L702 222L702 234L702 246L702 258L702 270L702 282L702 294L702 306L702 318L702 330L702 342L702 354L702 366L702 378L702 390L702 402L702 414L702 426L702 438L702 450L702 462" stroke="rgba(12, 12, 12, 1)" stroke-width="2"></path><path d="M699 462 a3 3 0 1 0 6 0 a3 3 0 1 0 -6 0zM687 414 a3 3 0 1 0 6 0 a3 3 0 1 0 -6 0zM711 402 a3 3 0 1 0 6 0 a3 3 0 1 0 -6 0zM687 222 a3 3 0 1 0 6 0 a3 3 0 1 0 -6 0zM687 354 a3 3 0 1 0 6 0 a3 3 0 1 0 -6 0zM723 354 a3 3 0 1 0 6 0 a3 3 0 1 0 -6 0zM675 318 a3 3 0 1 0 6 0 a3 3 0 1 0 -6 0zM687 474 a3 3 0 1 0 6 0 a3 3 0 1 0 -6 0zM735 306 a3 3 0 1 0 6 0 a3 3 0 1 0 -6 0zM711 498 a3 3 0 1 0 6 0 a3 3 0 1 0 -6 0zM699 186 a3 3 0 1 0 6 0 a3 3 0 1 0 -6 0z" fill="rgba(12, 12, 12, 1)"></path><path d="M738 30L726 42L726 54L726 66L726 78M786 450L786 462L786 474L786 486L786 498L786 510M774 330L762 342L762 354L762 366M774 210L762 222L762 234L762 246L762 258L762 270L762 282L762 294L762 306L762 318M738 102L726 114L726 126M762 174L750 186L750 198L750 210L750 222L750 234L750 246M786 402L774 414L774 426L774 438M738 114L750 126L750 138M750 162L750 174M762 198L762 210M738 -6L738 6L738 18L738 30L738 42L738 54L738 66L738 78L738 90L738 102L738 114L738 126L738 138L750 150L750 162L762 174L762 186L762 198L774 210L774 222L774 234L774 246L774 258L774 270L774 282L774 294L774 306L774 318L774 330L774 342L774 354L774 366L774 378L786 390L786 402L786 414L786 426L786 438L786 450L774 462L762 474L762 486" stroke="rgba(134, 14, 10, 1)" stroke-width="2"></path><path d="M759 486 a3 3 0 1 0 6 0 a3 3 0 1 0 -6 0zM723 78 a3 3 0 1 0 6 0 a3 3 0 1 0 -6 0zM783 510 a3 3 0 1 0 6 0 a3 3 0 1 0 -6 0zM759 366 a3 3 0 1 0 6 0 a3 3 0 1 0 -6 0zM759 318 a3 3 0 1 0 6 0 a3 3 0 1 0 -6 0zM723 126 a3 3 0 1 0 6 0 a3 3 0 1 0 -6 0zM747 246 a3 3 0 1 0 6 0 a3 3 0 1 0 -6 0zM771 438 a3 3 0 1 0 6 0 a3 3 0 1 0 -6 0zM747 138 a3 3 0 1 0 6 0 a3 3 0 1 0 -6 0zM747 174 a3 3 0 1 0 6 0 a3 3 0 1 0 -6 0zM759 210 a3 3 0 1 0 6 0 a3 3 0 1 0 -6 0z" fill="rgba(134, 14, 10, 1)"></path><path d="M678 246L678 258L678 270L666 282L666 294L666 306M654 582L666 594L666 606L666 618M654 342L654 354L654 366L654 378M666 402L678 414L678 426L678 438L678 450L678 462M654 510L666 522M666 474L678 486L690 498L690 510L690 522L690 534L690 546M678 138L666 150M654 570L642 582L642 594L642 606L642 618L642 630L642 642L642 654L642 666L642 678L642 690L642 702L654 714L666 726M666 366L678 378L678 390L678 402M678 66L666 78L666 90M654 546L666 558L666 570L666 582M654 534L666 546L678 558L678 570L678 582L678 594L678 606M702 -6L702 6L702 18L690 30L678 42L678 54L678 66L678 78L678 90L678 102L678 114L678 126L678 138L678 150L678 162L678 174L678 186L678 198L678 210L678 222L678 234L678 246L666 258L654 270L654 282L654 294L654 306L654 318L654 330L654 342L666 354L666 366L666 378L666 390L666 402L666 414L666 426L666 438L666 450L666 462L666 474L666 486L666 498L654 510L654 522L654 534L654 546L654 558L654 570L654 582L654 594" stroke="rgba(134, 14, 10, 1)" stroke-width="2"></path><path d="M651 594 a3 3 0 1 0 6 0 a3 3 0 1 0 -6 0zM663 306 a3 3 0 1 0 6 0 a3 3 0 1 0 -6 0zM663 618 a3 3 0 1 0 6 0 a3 3 0 1 0 -6 0zM651 378 a3 3 0 1 0 6 0 a3 3 0 1 0 -6 0zM675 462 a3 3 0 1 0 6 0 a3 3 0 1 0 -6 0zM663 522 a3 3 0 1 0 6 0 a3 3 0 1 0 -6 0zM687 546 a3 3 0 1 0 6 0 a3 3 0 1 0 -6 0zM663 150 a3 3 0 1 0 6 0 a3 3 0 1 0 -6 0zM663 726 a3 3 0 1 0 6 0 a3 3 0 1 0 -6 0zM675 402 a3 3 0 1 0 6 0 a3 3 0 1 0 -6 0zM663 90 a3 3 0 1 0 6 0 a3 3 0 1 0 -6 0zM663 582 a3 3 0 1 0 6 0 a3 3 0 1 0 -6 0zM675 606 a3 3 0 1 0 6 0 a3 3 0 1 0 -6 0z" fill="rgba(134, 14, 10, 1)"></path><path d="M786 558L798 570L798 582L798 594M786 570L774 582M798 402L810 414L810 426L810 438L810 450L810 462M762 150L762 162M798 474L810 486L810 498L810 510L810 522L810 534L810 546L810 558M786 534L774 546L774 558M762 90L750 102L750 114M786 594L774 606L774 618L774 630M786 546L798 558M798 522L798 534L798 546M762 126L774 138L774 150M750 78L750 90M750 -6L750 6L750 18L750 30L750 42L750 54L750 66L750 78L762 90L762 102L762 114L762 126L762 138L762 150L774 162L774 174L774 186L774 198L786 210L786 222L786 234L786 246L786 258L786 270L786 282L786 294L786 306L786 318L786 330L786 342L786 354L786 366L786 378L798 390L798 402L798 414L798 426L798 438L798 450L798 462L798 474L798 486L798 498L798 510L798 522L786 534L786 546L786 558L786 570L786 582L786 594L786 606" stroke="rgba(134, 14, 10, 1)" stroke-width="2"></path><path d="M783 606 a3 3 0 1 0 6 0 a3 3 0 1 0 -6 0zM795 594 a3 3 0 1 0 6 0 a3 3 0 1 0 -6 0zM771 582 a3 3 0 1 0 6 0 a3 3 0 1 0 -6 0zM807 462 a3 3 0 1 0 6 0 a3 3 0 1 0 -6 0zM759 162 a3 3 0 1 0 6 0 a3 3 0 1 0 -6 0zM807 558 a3 3 0 1 0 6 0 a3 3 0 1 0 -6 0zM771 558 a3 3 0 1 0 6 0 a3 3 0 1 0 -6 0zM747 114 a3 3 0 1 0 6 0 a3 3 0 1 0 -6 0zM771 630 a3 3 0 1 0 6 0 a3 3 0 1 0 -6 0zM795 558 a3 3 0 1 0 6 0 a3 3 0 1 0 -6 0zM795 546 a3 3 0 1 0 6 0 a3 3 0 1 0 -6 0zM771 150 a3 3 0 1 0 6 0 a3 3 0 1 0 -6 0zM747 90 a3 3 0 1 0 6 0 a3 3 0 1 0 -6 0z" fill="rgba(134, 14, 10, 1)"></path><path d="M654 474L642 486L630 498L630 510L630 522L630 534L630 546L630 558L630 570L630 582M642 354L630 366L630 378L630 390M666 102L654 114L654 126M654 150L654 162L654 174L654 186L654 198L654 210L654 222L654 234M654 402L642 414M654 90L654 102M642 330L630 342M654 450L642 462L642 474L630 486M642 318L630 330L618 342L618 354L606 366L606 378L606 390M642 378L642 390L642 402L630 414M642 306L630 318L618 330L606 342L606 354M666 126L666 138M690 -6L690 6L690 18L678 30L666 42L666 54L654 66L654 78L654 90L666 102L666 114L666 126L654 138L654 150L666 162L666 174L666 186L666 198L666 210L666 222L666 234L666 246L654 258L642 270L642 282L642 294L642 306L642 318L642 330L642 342L642 354L642 366L642 378L654 390L654 402L654 414L654 426L654 438L654 450L654 462L654 474L654 486L654 498L642 510L642 522L642 534L642 546L642 558" stroke="rgba(86, 50, 48, 1)" stroke-width="2"></path><path d="M639 558 a3 3 0 1 0 6 0 a3 3 0 1 0 -6 0zM627 582 a3 3 0 1 0 6 0 a3 3 0 1 0 -6 0zM627 390 a3 3 0 1 0 6 0 a3 3 0 1 0 -6 0zM651 126 a3 3 0 1 0 6 0 a3 3 0 1 0 -6 0zM651 234 a3 3 0 1 0 6 0 a3 3 0 1 0 -6 0zM639 414 a3 3 0 1 0 6 0 a3 3 0 1 0 -6 0zM651 102 a3 3 0 1 0 6 0 a3 3 0 1 0 -6 0zM627 342 a3 3 0 1 0 6 0 a3 3 0 1 0 -6 0zM627 486 a3 3 0 1 0 6 0 a3 3 0 1 0 -6 0zM603 390 a3 3 0 1 0 6 0 a3 3 0 1 0 -6 0zM627 414 a3 3 0 1 0 6 0 a3 3 0 1 0 -6 0zM603 354 a3 3 0 1 0 6 0 a3 3 0 1 0 -6 0zM663 138 a3 3 0 1 0 6 0 a3 3 0 1 0 -6 0z" fill="rgba(86, 50, 48, 1)"></path><path d="M774 90L786 102L786 114M762 54L774 66L774 78L786 90M798 342L810 354L810 366M798 294L810 306L810 318L810 330L810 342L822 354L822 366L822 378L822 390L822 402L822 414L822 426M762 -6L762 6L762 18L762 30L762 42L762 54L762 66L762 78L774 90L774 102L774 114L786 126L786 138L786 150L786 162L786 174L786 186L786 198L798 210L798 222L798 234L798 246L798 258L798 270L798 282L798 294L798 306L798 318L798 330L798 342L798 354L798 366" stroke="rgba(12, 12, 12, 1)" stroke-width="2"></path><path d="M795 366 a3 3 0 1 0 6 0 a3 3 0 1 0 -6 0zM783 114 a3 3 0 1 0 6 0 a3 3 0 1 0 -6 0zM783 90 a3 3 0 1 0 6 0 a3 3 0 1 0 -6 0zM807 366 a3 3 0 1 0 6 0 a3 3 0 1 0 -6 0zM819 426 a3 3 0 1 0 6 0 a3 3 0 1 0 -6 0z" fill="rgba(12, 12, 12, 1)"></path><path d="M834 570L822 582L822 594L822 606M774 42L774 54M834 594L846 606L846 618L846 630L846 642L846 654L846 666L846 678L846 690L846 702L846 714L846 726L846 738M834 414L846 426L846 438L846 450L846 462L846 474L846 486L846 498L846 510L846 522L846 534L846 546L846 558L846 570L846 582L846 594L858 606L858 618L870 630L870 642M834 522L822 534M810 282L810 294M834 558L822 570L810 582L810 594L810 606L810 618L810 630L810 642L810 654L810 666L810 678L810 690L810 702L810 714L798 726L798 738M834 402L846 414M834 486L822 498M834 474L822 486M822 330L822 342M834 546L822 558M834 510L822 522M774 -6L774 6L774 18L774 30L774 42L786 54L786 66L798 78L798 90L798 102L798 114L798 126L798 138L798 150L798 162L798 174L798 186L798 198L810 210L810 222L810 234L810 246L810 258L810 270L810 282L822 294L822 306L822 318L822 330L834 342L834 354L834 366L834 378L834 390L834 402L834 414L834 426L834 438L834 450L834 462L834 474L834 486L834 498L834 510L834 522L834 534L834 546L834 558L834 570L834 582L834 594L834 606L834 618" stroke="rgba(86, 50, 48, 1)" stroke-width="2"></path><path d="M831 618 a3 3 0 1 0 6 0 a3 3 0 1 0 -6 0zM819 606 a3 3 0 1 0 6 0 a3 3 0 1 0 -6 0zM771 54 a3 3 0 1 0 6 0 a3 3 0 1 0 -6 0zM843 738 a3 3 0 1 0 6 0 a3 3 0 1 0 -6 0zM867 642 a3 3 0 1 0 6 0 a3 3 0 1 0 -6 0zM819 534 a3 3 0 1 0 6 0 a3 3 0 1 0 -6 0zM807 294 a3 3 0 1 0 6 0 a3 3 0 1 0 -6 0zM795 738 a3 3 0 1 0 6 0 a3 3 0 1 0 -6 0zM843 414 a3 3 0 1 0 6 0 a3 3 0 1 0 -6 0zM819 498 a3 3 0 1 0 6 0 a3 3 0 1 0 -6 0zM819 486 a3 3 0 1 0 6 0 a3 3 0 1 0 -6 0zM819 342 a3 3 0 1 0 6 0 a3 3 0 1 0 -6 0zM819 558 a3 3 0 1 0 6 0 a3 3 0 1 0 -6 0zM819 522 a3 3 0 1 0 6 0 a3 3 0 1 0 -6 0z" fill="rgba(86, 50, 48, 1)"></path><path d="M642 162L630 174L630 186L630 198M654 42L642 54M642 150L630 162L618 174M666 6L678 18M666 -6L666 6L666 18L666 30L654 42L654 54L642 66L642 78L642 90L642 102L642 114L642 126L642 138L642 150L642 162L642 174" stroke="rgba(12, 12, 12, 1)" stroke-width="2"></path><path d="M639 174 a3 3 0 1 0 6 0 a3 3 0 1 0 -6 0zM627 198 a3 3 0 1 0 6 0 a3 3 0 1 0 -6 0zM639 54 a3 3 0 1 0 6 0 a3 3 0 1 0 -6 0zM615 174 a3 3 0 1 0 6 0 a3 3 0 1 0 -6 0zM675 18 a3 3 0 1 0 6 0 a3 3 0 1 0 -6 0z" fill="rgba(12, 12, 12, 1)"></path><path d="M822 246L834 258L834 270L834 282M846 378L846 390L846 402M786 -6L786 6L786 18L786 30L786 42L798 54L798 66L810 78L810 90L810 102L810 114L810 126L810 138L810 150L810 162L810 174L810 186L810 198L822 210L822 222L822 234L822 246L822 258L822 270L822 282L834 294L834 306L834 318L834 330L846 342L846 354L846 366L846 378L858 390L858 402L858 414L858 426L858 438L858 450" stroke="rgba(134, 14, 10, 1)" stroke-width="2"></path><path d="M855 450 a3 3 0 1 0 6 0 a3 3 0 1 0 -6 0zM831 282 a3 3 0 1 0 6 0 a3 3 0 1 0 -6 0zM843 402 a3 3 0 1 0 6 0 a3 3 0 1 0 -6 0z" fill="rgba(134, 14, 10, 1)"></path><path d="M654 6L642 18L642 30L642 42M654 -6L654 6L654 18" stroke="rgba(134, 14, 10, 1)" stroke-width="2"></path><path d="M651 18 a3 3 0 1 0 6 0 a3 3 0 1 0 -6 0zM639 42 a3 3 0 1 0 6 0 a3 3 0 1 0 -6 0z" fill="rgba(134, 14, 10, 1)"></path><path d="M834 234L834 246M822 90L834 102M798 -6L798 6L798 18L798 30L798 42L810 54L810 66L822 78L822 90L822 102L822 114L822 126L822 138L822 150L822 162L822 174L822 186L822 198L834 210L834 222L834 234L846 246" stroke="rgba(12, 12, 12, 1)" stroke-width="2"></path><path d="M843 246 a3 3 0 1 0 6 0 a3 3 0 1 0 -6 0zM831 246 a3 3 0 1 0 6 0 a3 3 0 1 0 -6 0zM831 102 a3 3 0 1 0 6 0 a3 3 0 1 0 -6 0z" fill="rgba(12, 12, 12, 1)"></path><path d="M834 126L846 138L846 150L846 162L846 174L846 186L846 198M870 390L882 402L882 414L882 426L894 438M894 714L894 726L894 738M858 258L858 270M894 690L882 702L882 714L882 726L882 738M894 642L882 654L882 666L882 678M870 582L870 594L870 606L870 618M870 462L858 474L858 486M858 342L870 354L870 366L870 378M858 510L870 522L882 534L882 546L882 558L882 570L882 582L894 594M846 306L858 318L858 330L870 342M894 618L882 630L882 642M870 570L858 582L858 594M894 606L882 618M882 594L882 606M810 -6L810 6L810 18L810 30L810 42L822 54L822 66L834 78L846 90L846 102L834 114L834 126L834 138L834 150L834 162L834 174L834 186L834 198L846 210L846 222L846 234L858 246L858 258L846 270L846 282L846 294L846 306L846 318L846 330L858 342L858 354L858 366L858 378L870 390L870 402L870 414L870 426L870 438L870 450L870 462L870 474L870 486L858 498L858 510L858 522L858 534L858 546L870 558L870 570L870 582L882 594L894 606L894 618L894 630L894 642L894 654L894 666L894 678L894 690L894 702L894 714L906 726L906 738" stroke="rgba(134, 14, 10, 1)" stroke-width="2"></path><path d="M903 738 a3 3 0 1 0 6 0 a3 3 0 1 0 -6 0zM843 198 a3 3 0 1 0 6 0 a3 3 0 1 0 -6 0zM891 438 a3 3 0 1 0 6 0 a3 3 0 1 0 -6 0zM891 738 a3 3 0 1 0 6 0 a3 3 0 1 0 -6 0zM855 270 a3 3 0 1 0 6 0 a3 3 0 1 0 -6 0zM879 738 a3 3 0 1 0 6 0 a3 3 0 1 0 -6 0zM879 678 a3 3 0 1 0 6 0 a3 3 0 1 0 -6 0zM867 618 a3 3 0 1 0 6 0 a3 3 0 1 0 -6 0zM855 486 a3 3 0 1 0 6 0 a3 3 0 1 0 -6 0zM867 378 a3 3 0 1 0 6 0 a3 3 0 1 0 -6 0zM891 594 a3 3 0 1 0 6 0 a3 3 0 1 0 -6 0zM867 342 a3 3 0 1 0 6 0 a3 3 0 1 0 -6 0zM879 642 a3 3 0 1 0 6 0 a3 3 0 1 0 -6 0zM855 594 a3 3 0 1 0 6 0 a3 3 0 1 0 -6 0zM879 618 a3 3 0 1 0 6 0 a3 3 0 1 0 -6 0zM879 606 a3 3 0 1 0 6 0 a3 3 0 1 0 -6 0z" fill="rgba(134, 14, 10, 1)"></path><path d="M630 30L618 42M630 54L618 66M630 -6L630 6L630 18L630 30L630 42L630 54L630 66L630 78L630 90L630 102L630 114L630 126L630 138" stroke="rgba(134, 14, 10, 1)" stroke-width="2"></path><path d="M627 138 a3 3 0 1 0 6 0 a3 3 0 1 0 -6 0zM615 42 a3 3 0 1 0 6 0 a3 3 0 1 0 -6 0zM615 66 a3 3 0 1 0 6 0 a3 3 0 1 0 -6 0z" fill="rgba(134, 14, 10, 1)"></path><path d="M858 186L870 198L870 210L870 222L870 234M882 342L894 354L894 366L894 378M882 306L894 318L894 330L894 342M858 114L846 126M870 282L870 294L870 306M858 174L870 186M882 318L870 330M858 162L870 174M822 -6L822 6L822 18L822 30L822 42L834 54L834 66L846 78L858 90L858 102L858 114L858 126L858 138L858 150L858 162L858 174L858 186L858 198L858 210L858 222L858 234L870 246L870 258L870 270L870 282L882 294L882 306L882 318L882 330L882 342L882 354L882 366L882 378" stroke="rgba(86, 50, 48, 1)" stroke-width="2"></path><path d="M879 378 a3 3 0 1 0 6 0 a3 3 0 1 0 -6 0zM867 234 a3 3 0 1 0 6 0 a3 3 0 1 0 -6 0zM891 378 a3 3 0 1 0 6 0 a3 3 0 1 0 -6 0zM891 342 a3 3 0 1 0 6 0 a3 3 0 1 0 -6 0zM843 126 a3 3 0 1 0 6 0 a3 3 0 1 0 -6 0zM867 306 a3 3 0 1 0 6 0 a3 3 0 1 0 -6 0zM867 186 a3 3 0 1 0 6 0 a3 3 0 1 0 -6 0zM867 330 a3 3 0 1 0 6 0 a3 3 0 1 0 -6 0zM867 174 a3 3 0 1 0 6 0 a3 3 0 1 0 -6 0z" fill="rgba(86, 50, 48, 1)"></path><path d="M618 -6L618 6L618 18" stroke="rgba(134, 14, 10, 1)" stroke-width="2"></path><path d="M615 18 a3 3 0 1 0 6 0 a3 3 0 1 0 -6 0z" fill="rgba(134, 14, 10, 1)"></path><path d="M906 414L894 426M906 450L894 462L894 474L894 486L894 498L894 510L894 522L894 534L894 546L894 558L894 570L894 582M870 138L870 150L870 162M906 666L918 678L918 690L918 702L918 714L930 726L930 738M906 606L918 618M882 174L894 186M906 522L918 534L918 546L918 558L918 570L918 582L918 594L918 606L930 618L942 630L954 642L954 654L954 666M906 342L918 354L918 366M882 162L894 174M906 426L918 438M906 306L918 318L918 330L918 342M906 486L918 498L918 510L918 522L930 534M882 258L894 270L894 282L906 294M906 462L918 474L930 486L930 498L930 510M906 402L894 414M834 -6L834 6L834 18L834 30L834 42L846 54L846 66L858 78L870 90L870 102L870 114L870 126L870 138L882 150L882 162L882 174L882 186L882 198L882 210L882 222L882 234L882 246L882 258L882 270L882 282L894 294L906 306L906 318L906 330L906 342L906 354L906 366L906 378L906 390L906 402L906 414L906 426L906 438L906 450L906 462L906 474L906 486L906 498L906 510L906 522L906 534L906 546L906 558L906 570L906 582L906 594L906 606L906 618L906 630L906 642L906 654L906 666L906 678L906 690L906 702L906 714L918 726" stroke="rgba(86, 50, 48, 1)" stroke-width="2"></path><path d="M915 726 a3 3 0 1 0 6 0 a3 3 0 1 0 -6 0zM891 426 a3 3 0 1 0 6 0 a3 3 0 1 0 -6 0zM891 582 a3 3 0 1 0 6 0 a3 3 0 1 0 -6 0zM867 162 a3 3 0 1 0 6 0 a3 3 0 1 0 -6 0zM927 738 a3 3 0 1 0 6 0 a3 3 0 1 0 -6 0zM915 618 a3 3 0 1 0 6 0 a3 3 0 1 0 -6 0zM891 186 a3 3 0 1 0 6 0 a3 3 0 1 0 -6 0zM951 666 a3 3 0 1 0 6 0 a3 3 0 1 0 -6 0zM915 366 a3 3 0 1 0 6 0 a3 3 0 1 0 -6 0zM891 174 a3 3 0 1 0 6 0 a3 3 0 1 0 -6 0zM915 438 a3 3 0 1 0 6 0 a3 3 0 1 0 -6 0zM915 342 a3 3 0 1 0 6 0 a3 3 0 1 0 -6 0zM927 534 a3 3 0 1 0 6 0 a3 3 0 1 0 -6 0zM903 294 a3 3 0 1 0 6 0 a3 3 0 1 0 -6 0zM927 510 a3 3 0 1 0 6 0 a3 3 0 1 0 -6 0zM891 414 a3 3 0 1 0 6 0 a3 3 0 1 0 -6 0z" fill="rgba(86, 50, 48, 1)"></path><path d="M618 78L606 90L606 102L606 114L606 126M618 138L606 150L606 162L606 174L606 186M606 66L606 78M606 -6L606 6L606 18L606 30L606 42L606 54L606 66L618 78L618 90L618 102L618 114L618 126L618 138L618 150" stroke="rgba(86, 50, 48, 1)" stroke-width="2"></path><path d="M615 150 a3 3 0 1 0 6 0 a3 3 0 1 0 -6 0zM603 126 a3 3 0 1 0 6 0 a3 3 0 1 0 -6 0zM603 186 a3 3 0 1 0 6 0 a3 3 0 1 0 -6 0zM603 78 a3 3 0 1 0 6 0 a3 3 0 1 0 -6 0z" fill="rgba(86, 50, 48, 1)"></path><path d="M882 102L894 114L894 126M894 222L906 234L906 246L906 258L906 270M894 150L894 162M894 210L906 222M906 198L906 210M846 -6L846 6L846 18L846 30L846 42L858 54L870 66L870 78L882 90L882 102L882 114L882 126L882 138L894 150L906 162L906 174L906 186L906 198L894 210L894 222L894 234" stroke="rgba(86, 50, 48, 1)" stroke-width="2"></path><path d="M891 234 a3 3 0 1 0 6 0 a3 3 0 1 0 -6 0zM891 126 a3 3 0 1 0 6 0 a3 3 0 1 0 -6 0zM903 270 a3 3 0 1 0 6 0 a3 3 0 1 0 -6 0zM891 162 a3 3 0 1 0 6 0 a3 3 0 1 0 -6 0zM903 222 a3 3 0 1 0 6 0 a3 3 0 1 0 -6 0zM903 210 a3 3 0 1 0 6 0 a3 3 0 1 0 -6 0z" fill="rgba(86, 50, 48, 1)"></path><path d="M582 138L594 150L594 162L594 174M582 534L594 546M570 414L582 426L582 438L594 450L594 462M582 522L594 534L606 546M594 342L582 354L570 366M582 258L570 270L570 282L570 294M582 246L570 258M594 330L582 342L570 354M570 402L582 414L594 426L594 438L606 450M594 126L594 138M582 234L570 246M582 450L570 462L570 474L570 486M594 -6L594 6L594 18L594 30L594 42L594 54L594 66L594 78L594 90L594 102L594 114L594 126L582 138L582 150L582 162L582 174L582 186L582 198L582 210L582 222L582 234L582 246L582 258L582 270L582 282L582 294L582 306L594 318L594 330L594 342L594 354L582 366L570 378L570 390L570 402L570 414L570 426L570 438L582 450L582 462L582 474L582 486L582 498L582 510L582 522L582 534L582 546L582 558" stroke="rgba(86, 50, 48, 1)" stroke-width="2"></path><path d="M579 558 a3 3 0 1 0 6 0 a3 3 0 1 0 -6 0zM591 174 a3 3 0 1 0 6 0 a3 3 0 1 0 -6 0zM591 546 a3 3 0 1 0 6 0 a3 3 0 1 0 -6 0zM591 462 a3 3 0 1 0 6 0 a3 3 0 1 0 -6 0zM603 546 a3 3 0 1 0 6 0 a3 3 0 1 0 -6 0zM567 366 a3 3 0 1 0 6 0 a3 3 0 1 0 -6 0zM567 294 a3 3 0 1 0 6 0 a3 3 0 1 0 -6 0zM567 258 a3 3 0 1 0 6 0 a3 3 0 1 0 -6 0zM567 354 a3 3 0 1 0 6 0 a3 3 0 1 0 -6 0zM603 450 a3 3 0 1 0 6 0 a3 3 0 1 0 -6 0zM591 138 a3 3 0 1 0 6 0 a3 3 0 1 0 -6 0zM567 246 a3 3 0 1 0 6 0 a3 3 0 1 0 -6 0zM567 486 a3 3 0 1 0 6 0 a3 3 0 1 0 -6 0z" fill="rgba(86, 50, 48, 1)"></path><path d="M858 -6L858 6L858 18L858 30L858 42L870 54L882 66" stroke="rgba(86, 50, 48, 1)" stroke-width="2"></path><path d="M879 66 a3 3 0 1 0 6 0 a3 3 0 1 0 -6 0z" fill="rgba(86, 50, 48, 1)"></path><path d="M558 582L546 594L546 606L546 618L546 630L546 642L546 654L546 666L534 678L534 690L534 702L534 714M558 318L570 330L570 342M558 654L570 666L582 678L582 690L582 702M582 102L570 114L570 126M570 222L570 234M558 594L570 606L570 618L570 630L570 642L570 654L582 666L594 678L594 690L594 702L594 714L594 726L594 738M558 306L570 318L582 330M558 546L570 558L570 570L570 582L570 594L582 606L582 618L582 630L582 642M558 498L570 510L570 522L570 534L570 546M546 678L558 690L558 702L558 714L558 726L558 738M558 666L558 678L570 690M558 570L546 582M582 90L570 102M582 -6L582 6L582 18L582 30L582 42L582 54L582 66L582 78L582 90L582 102L582 114L582 126L570 138L570 150L570 162L570 174L570 186L570 198L570 210L570 222L558 234L558 246L558 258L558 270L558 282L558 294L558 306L558 318L558 330L558 342L558 354L558 366L558 378L558 390L558 402L558 414L558 426L558 438L558 450L558 462L558 474L558 486L558 498L558 510L558 522L558 534L558 546L558 558L558 570L558 582L558 594L558 606L558 618L558 630L558 642L558 654L558 666L546 678L546 690" stroke="rgba(12, 12, 12, 1)" stroke-width="2"></path><path d="M543 690 a3 3 0 1 0 6 0 a3 3 0 1 0 -6 0zM531 714 a3 3 0 1 0 6 0 a3 3 0 1 0 -6 0zM567 342 a3 3 0 1 0 6 0 a3 3 0 1 0 -6 0zM579 702 a3 3 0 1 0 6 0 a3 3 0 1 0 -6 0zM567 126 a3 3 0 1 0 6 0 a3 3 0 1 0 -6 0zM567 234 a3 3 0 1 0 6 0 a3 3 0 1 0 -6 0zM591 738 a3 3 0 1 0 6 0 a3 3 0 1 0 -6 0zM579 330 a3 3 0 1 0 6 0 a3 3 0 1 0 -6 0zM579 642 a3 3 0 1 0 6 0 a3 3 0 1 0 -6 0zM567 546 a3 3 0 1 0 6 0 a3 3 0 1 0 -6 0zM555 738 a3 3 0 1 0 6 0 a3 3 0 1 0 -6 0zM567 690 a3 3 0 1 0 6 0 a3 3 0 1 0 -6 0zM543 582 a3 3 0 1 0 6 0 a3 3 0 1 0 -6 0zM567 102 a3 3 0 1 0 6 0 a3 3 0 1 0 -6 0z" fill="rgba(12, 12, 12, 1)"></path><path d="M870 30L882 42M870 18L882 30M870 -6L870 6L870 18L870 30L870 42L882 54L894 66L894 78" stroke="rgba(134, 14, 10, 1)" stroke-width="2"></path><path d="M891 78 a3 3 0 1 0 6 0 a3 3 0 1 0 -6 0zM879 42 a3 3 0 1 0 6 0 a3 3 0 1 0 -6 0zM879 30 a3 3 0 1 0 6 0 a3 3 0 1 0 -6 0z" fill="rgba(134, 14, 10, 1)"></path><path d="M546 306L534 318L534 330L534 342L534 354L534 366L534 378M546 390L534 402L534 414L534 426L534 438L534 450M534 606L522 618M546 270L534 282L534 294L534 306L522 318L522 330L522 342L522 354M546 522L534 534L534 546L522 558M534 570L522 582L522 594M546 558L546 570M546 258L534 270M546 462L534 474L522 486L522 498L522 510L522 522L522 534L522 546M546 498L534 510L534 522M546 246L534 258M570 -6L570 6L570 18L570 30L570 42L570 54L570 66L570 78L558 90L558 102L558 114L558 126L558 138L558 150L558 162L558 174L558 186L558 198L558 210L558 222L546 234L546 246L546 258L546 270L546 282L546 294L546 306L546 318L546 330L546 342L546 354L546 366L546 378L546 390L546 402L546 414L546 426L546 438L546 450L546 462L546 474L546 486L546 498L546 510L546 522L546 534L546 546L546 558L534 570L534 582L534 594L534 606L534 618L534 630" stroke="rgba(12, 12, 12, 1)" stroke-width="2"></path><path d="M531 630 a3 3 0 1 0 6 0 a3 3 0 1 0 -6 0zM531 378 a3 3 0 1 0 6 0 a3 3 0 1 0 -6 0zM531 450 a3 3 0 1 0 6 0 a3 3 0 1 0 -6 0zM519 618 a3 3 0 1 0 6 0 a3 3 0 1 0 -6 0zM519 354 a3 3 0 1 0 6 0 a3 3 0 1 0 -6 0zM519 558 a3 3 0 1 0 6 0 a3 3 0 1 0 -6 0zM519 594 a3 3 0 1 0 6 0 a3 3 0 1 0 -6 0zM543 570 a3 3 0 1 0 6 0 a3 3 0 1 0 -6 0zM531 270 a3 3 0 1 0 6 0 a3 3 0 1 0 -6 0zM519 546 a3 3 0 1 0 6 0 a3 3 0 1 0 -6 0zM531 522 a3 3 0 1 0 6 0 a3 3 0 1 0 -6 0zM531 258 a3 3 0 1 0 6 0 a3 3 0 1 0 -6 0z" fill="rgba(12, 12, 12, 1)"></path><path d="M942 414L930 426L930 438M942 390L930 402L930 414L918 426M930 318L942 330M918 234L930 246L930 258L930 270L930 282L930 294M942 570L942 582L942 594L942 606M942 450L930 462L930 474M942 366L930 378L930 390L918 402L918 414M942 558L930 570L930 582L930 594L930 606M918 198L930 210L930 222L930 234M918 294L918 306M942 546L930 558M930 354L930 366M882 -6L882 6L894 18L894 30L894 42L894 54L906 66L906 78L906 90L906 102L906 114L906 126L906 138L906 150L918 162L918 174L918 186L918 198L918 210L918 222L918 234L918 246L918 258L918 270L918 282L918 294L930 306L930 318L930 330L930 342L930 354L942 366L942 378L942 390L942 402L942 414L942 426L942 438L942 450L942 462L942 474L942 486L942 498L942 510L942 522L942 534L942 546L942 558L942 570L954 582" stroke="rgba(86, 50, 48, 1)" stroke-width="2"></path><path d="M951 582 a3 3 0 1 0 6 0 a3 3 0 1 0 -6 0zM927 438 a3 3 0 1 0 6 0 a3 3 0 1 0 -6 0zM915 426 a3 3 0 1 0 6 0 a3 3 0 1 0 -6 0zM939 330 a3 3 0 1 0 6 0 a3 3 0 1 0 -6 0zM927 294 a3 3 0 1 0 6 0 a3 3 0 1 0 -6 0zM939 606 a3 3 0 1 0 6 0 a3 3 0 1 0 -6 0zM927 474 a3 3 0 1 0 6 0 a3 3 0 1 0 -6 0zM915 414 a3 3 0 1 0 6 0 a3 3 0 1 0 -6 0zM927 606 a3 3 0 1 0 6 0 a3 3 0 1 0 -6 0zM927 234 a3 3 0 1 0 6 0 a3 3 0 1 0 -6 0zM915 306 a3 3 0 1 0 6 0 a3 3 0 1 0 -6 0zM927 558 a3 3 0 1 0 6 0 a3 3 0 1 0 -6 0zM927 366 a3 3 0 1 0 6 0 a3 3 0 1 0 -6 0z" fill="rgba(86, 50, 48, 1)"></path><path d="M498 642L510 654L510 666L510 678L510 690L510 702L510 714M510 378L522 390L522 402M510 438L498 450L498 462M510 366L522 378M546 174L534 186L534 198L534 210L534 222M498 690L486 702L486 714L486 726L486 738M498 618L510 630L510 642L522 654L522 666M498 678L486 690L474 702L474 714L474 726L474 738M498 654L486 666L486 678L474 690M510 390L498 402L498 414L498 426L498 438M510 450L522 462L522 474M534 234L534 246M498 726L510 738M546 150L534 162L534 174M522 294L522 306M558 -6L558 6L558 18L558 30L558 42L558 54L558 66L558 78L546 90L546 102L546 114L546 126L546 138L546 150L546 162L546 174L546 186L546 198L546 210L546 222L534 234L522 246L522 258L522 270L522 282L522 294L510 306L510 318L510 330L510 342L510 354L510 366L510 378L510 390L510 402L510 414L510 426L510 438L510 450L510 462L510 474L510 486L510 498L510 510L510 522L510 534L510 546L510 558L510 570L510 582L510 594L510 606L498 618L498 630L498 642L498 654L498 666L498 678L498 690L498 702L498 714L498 726L498 738" stroke="rgba(86, 50, 48, 1)" stroke-width="2"></path><path d="M495 738 a3 3 0 1 0 6 0 a3 3 0 1 0 -6 0zM507 714 a3 3 0 1 0 6 0 a3 3 0 1 0 -6 0zM519 402 a3 3 0 1 0 6 0 a3 3 0 1 0 -6 0zM495 462 a3 3 0 1 0 6 0 a3 3 0 1 0 -6 0zM519 378 a3 3 0 1 0 6 0 a3 3 0 1 0 -6 0zM531 222 a3 3 0 1 0 6 0 a3 3 0 1 0 -6 0zM483 738 a3 3 0 1 0 6 0 a3 3 0 1 0 -6 0zM519 666 a3 3 0 1 0 6 0 a3 3 0 1 0 -6 0zM471 738 a3 3 0 1 0 6 0 a3 3 0 1 0 -6 0zM471 690 a3 3 0 1 0 6 0 a3 3 0 1 0 -6 0zM495 438 a3 3 0 1 0 6 0 a3 3 0 1 0 -6 0zM519 474 a3 3 0 1 0 6 0 a3 3 0 1 0 -6 0zM531 246 a3 3 0 1 0 6 0 a3 3 0 1 0 -6 0zM507 738 a3 3 0 1 0 6 0 a3 3 0 1 0 -6 0zM531 174 a3 3 0 1 0 6 0 a3 3 0 1 0 -6 0zM519 306 a3 3 0 1 0 6 0 a3 3 0 1 0 -6 0z" fill="rgba(86, 50, 48, 1)"></path><path d="M930 186L930 198M942 258L954 270L954 282L954 294M894 -6L894 6L906 18L906 30L906 42L906 54L918 66L918 78L918 90L918 102L918 114L918 126L918 138L918 150L930 162L930 174L930 186L942 198L942 210L942 222L942 234L942 246L942 258L942 270L942 282L942 294L942 306" stroke="rgba(134, 14, 10, 1)" stroke-width="2"></path><path d="M939 306 a3 3 0 1 0 6 0 a3 3 0 1 0 -6 0zM927 198 a3 3 0 1 0 6 0 a3 3 0 1 0 -6 0zM951 294 a3 3 0 1 0 6 0 a3 3 0 1 0 -6 0z" fill="rgba(134, 14, 10, 1)"></path><path d="M546 -6L546 6L546 18L546 30L546 42L546 54L546 66L546 78L534 90L534 102L534 114L534 126L534 138" stroke="rgba(12, 12, 12, 1)" stroke-width="2"></path><path d="M531 138 a3 3 0 1 0 6 0 a3 3 0 1 0 -6 0z" fill="rgba(12, 12, 12, 1)"></path><path d="M930 138L942 150M930 114L942 126L942 138M918 42L918 54M906 -6L906 6L918 18L918 30L918 42L930 54L930 66L930 78L930 90L930 102L930 114L930 126L930 138L930 150L942 162L942 174" stroke="rgba(86, 50, 48, 1)" stroke-width="2"></path><path d="M939 174 a3 3 0 1 0 6 0 a3 3 0 1 0 -6 0zM939 150 a3 3 0 1 0 6 0 a3 3 0 1 0 -6 0zM939 138 a3 3 0 1 0 6 0 a3 3 0 1 0 -6 0zM915 54 a3 3 0 1 0 6 0 a3 3 0 1 0 -6 0z" fill="rgba(86, 50, 48, 1)"></path><path d="M486 450L474 462M498 594L486 606L474 618L474 630L462 642L462 654L462 666L450 678L438 690L438 702L438 714L438 726M522 162L510 174L510 186L510 198L510 210M474 642L486 654M498 498L486 510L486 522L486 534M498 546L486 558L486 570L486 582L486 594L474 606L462 618L462 630L450 642L450 654L450 666L438 678L426 690L426 702L426 714L426 726L426 738M498 366L498 378L498 390M462 690L450 702L450 714M522 138L510 150L510 162M534 42L522 54L522 66M486 630L486 642M498 474L486 486L486 498L474 510L474 522L474 534L474 546L474 558L474 570L474 582L474 594L462 606L450 618L450 630M522 222L510 234M486 462L486 474L474 486M474 666L474 678M534 -6L534 6L534 18L534 30L534 42L534 54L534 66L534 78L522 90L522 102L522 114L522 126L522 138L522 150L522 162L522 174L522 186L522 198L522 210L522 222L522 234L510 246L510 258L510 270L510 282L510 294L498 306L498 318L498 330L498 342L498 354L498 366L486 378L486 390L486 402L486 414L486 426L486 438L486 450L486 462L498 474L498 486L498 498L498 510L498 522L498 534L498 546L498 558L498 570L498 582L498 594L498 606L486 618L486 630L474 642L474 654L474 666L462 678L462 690L462 702L462 714L462 726" stroke="rgba(134, 14, 10, 1)" stroke-width="2"></path><path d="M459 726 a3 3 0 1 0 6 0 a3 3 0 1 0 -6 0zM471 462 a3 3 0 1 0 6 0 a3 3 0 1 0 -6 0zM435 726 a3 3 0 1 0 6 0 a3 3 0 1 0 -6 0zM507 210 a3 3 0 1 0 6 0 a3 3 0 1 0 -6 0zM483 654 a3 3 0 1 0 6 0 a3 3 0 1 0 -6 0zM483 534 a3 3 0 1 0 6 0 a3 3 0 1 0 -6 0zM423 738 a3 3 0 1 0 6 0 a3 3 0 1 0 -6 0zM495 390 a3 3 0 1 0 6 0 a3 3 0 1 0 -6 0zM447 714 a3 3 0 1 0 6 0 a3 3 0 1 0 -6 0zM507 162 a3 3 0 1 0 6 0 a3 3 0 1 0 -6 0zM519 66 a3 3 0 1 0 6 0 a3 3 0 1 0 -6 0zM483 642 a3 3 0 1 0 6 0 a3 3 0 1 0 -6 0zM447 630 a3 3 0 1 0 6 0 a3 3 0 1 0 -6 0zM507 234 a3 3 0 1 0 6 0 a3 3 0 1 0 -6 0zM471 486 a3 3 0 1 0 6 0 a3 3 0 1 0 -6 0zM471 678 a3 3 0 1 0 6 0 a3 3 0 1 0 -6 0z" fill="rgba(134, 14, 10, 1)"></path><path d="M954 246L954 258M942 102L942 114M918 -6L918 6L930 18L930 30L930 42L942 54L942 66L942 78L942 90L942 102L954 114L954 126L954 138L954 150L954 162L954 174L954 186L954 198L954 210L954 222L954 234L954 246L966 258" stroke="rgba(134, 14, 10, 1)" stroke-width="2"></path><path d="M963 258 a3 3 0 1 0 6 0 a3 3 0 1 0 -6 0zM951 258 a3 3 0 1 0 6 0 a3 3 0 1 0 -6 0zM939 114 a3 3 0 1 0 6 0 a3 3 0 1 0 -6 0z" fill="rgba(134, 14, 10, 1)"></path><path d="M522 18L522 30M510 66L510 78L510 90M522 -6L522 6L522 18L510 30L510 42L510 54L510 66L522 78" stroke="rgba(134, 14, 10, 1)" stroke-width="2"></path><path d="M519 78 a3 3 0 1 0 6 0 a3 3 0 1 0 -6 0zM519 30 a3 3 0 1 0 6 0 a3 3 0 1 0 -6 0zM507 90 a3 3 0 1 0 6 0 a3 3 0 1 0 -6 0z" fill="rgba(134, 14, 10, 1)"></path><path d="M978 270L966 282L966 294L966 306L954 318M954 462L966 474L966 486L966 498L966 510L966 522L966 534L966 546L966 558L978 570L978 582M954 378L966 390M954 78L966 90L966 102M954 366L966 378L978 390L978 402L978 414L978 426L978 438L978 450L978 462L978 474L978 486L978 498L978 510L978 522L978 534L978 546L978 558L990 570M966 318L966 330L966 342L966 354M954 450L966 462M954 66L966 78M966 594L954 606L954 618L954 630L966 642L966 654L966 666L966 678L966 690M978 306L978 318L978 330L978 342L978 354M954 414L966 426L966 438M942 342L954 354M966 210L966 222M930 -6L930 6L942 18L942 30L942 42L954 54L954 66L954 78L954 90L954 102L966 114L966 126L966 138L966 150L966 162L966 174L966 186L966 198L966 210L978 222L978 234L978 246L978 258L978 270L978 282L978 294L978 306L966 318L954 330L942 342L942 354L954 366L954 378L954 390L954 402L954 414L954 426L954 438L954 450L954 462L954 474L954 486L954 498L954 510L954 522L954 534L954 546L954 558L954 570L966 582L966 594L966 606" stroke="rgba(134, 14, 10, 1)" stroke-width="2"></path><path d="M963 606 a3 3 0 1 0 6 0 a3 3 0 1 0 -6 0zM951 318 a3 3 0 1 0 6 0 a3 3 0 1 0 -6 0zM975 582 a3 3 0 1 0 6 0 a3 3 0 1 0 -6 0zM963 390 a3 3 0 1 0 6 0 a3 3 0 1 0 -6 0zM963 102 a3 3 0 1 0 6 0 a3 3 0 1 0 -6 0zM987 570 a3 3 0 1 0 6 0 a3 3 0 1 0 -6 0zM963 354 a3 3 0 1 0 6 0 a3 3 0 1 0 -6 0zM963 462 a3 3 0 1 0 6 0 a3 3 0 1 0 -6 0zM963 78 a3 3 0 1 0 6 0 a3 3 0 1 0 -6 0zM963 690 a3 3 0 1 0 6 0 a3 3 0 1 0 -6 0zM975 354 a3 3 0 1 0 6 0 a3 3 0 1 0 -6 0zM963 438 a3 3 0 1 0 6 0 a3 3 0 1 0 -6 0zM951 354 a3 3 0 1 0 6 0 a3 3 0 1 0 -6 0zM963 222 a3 3 0 1 0 6 0 a3 3 0 1 0 -6 0z" fill="rgba(134, 14, 10, 1)"></path><path d="M510 126L510 138M474 426L462 438M474 402L462 414L462 426L450 438M510 114L498 126M498 210L486 222L486 234L486 246M498 90L498 102M474 390L462 402M510 -6L510 6L510 18L498 30L498 42L498 54L498 66L498 78L498 90L510 102L510 114L510 126L498 138L498 150L498 162L498 174L498 186L498 198L498 210L498 222L498 234L498 246L498 258L498 270L498 282L498 294L486 306L486 318L486 330L486 342L486 354L474 366L474 378L474 390L474 402L474 414L474 426L474 438" stroke="rgba(12, 12, 12, 1)" stroke-width="2"></path><path d="M471 438 a3 3 0 1 0 6 0 a3 3 0 1 0 -6 0zM507 138 a3 3 0 1 0 6 0 a3 3 0 1 0 -6 0zM459 438 a3 3 0 1 0 6 0 a3 3 0 1 0 -6 0zM447 438 a3 3 0 1 0 6 0 a3 3 0 1 0 -6 0zM495 126 a3 3 0 1 0 6 0 a3 3 0 1 0 -6 0zM483 246 a3 3 0 1 0 6 0 a3 3 0 1 0 -6 0zM495 102 a3 3 0 1 0 6 0 a3 3 0 1 0 -6 0zM459 402 a3 3 0 1 0 6 0 a3 3 0 1 0 -6 0z" fill="rgba(12, 12, 12, 1)"></path><path d="M1002 330L1002 342L1002 354L1002 366L1002 378L1002 390L1014 402M990 246L1002 258L1002 270L1002 282M978 174L990 186M978 90L990 102L990 114L990 126M966 54L966 66M954 30L966 42M1002 306L990 318M942 -6L942 6L954 18L954 30L954 42L966 54L978 66L978 78L978 90L978 102L978 114L978 126L978 138L978 150L978 162L978 174L978 186L978 198L978 210L990 222L990 234L990 246L990 258L990 270L990 282L990 294L1002 306L1002 318L1002 330L1014 342L1014 354" stroke="rgba(86, 50, 48, 1)" stroke-width="2"></path><path d="M1011 354 a3 3 0 1 0 6 0 a3 3 0 1 0 -6 0zM1011 402 a3 3 0 1 0 6 0 a3 3 0 1 0 -6 0zM999 282 a3 3 0 1 0 6 0 a3 3 0 1 0 -6 0zM987 186 a3 3 0 1 0 6 0 a3 3 0 1 0 -6 0zM987 126 a3 3 0 1 0 6 0 a3 3 0 1 0 -6 0zM963 66 a3 3 0 1 0 6 0 a3 3 0 1 0 -6 0zM963 42 a3 3 0 1 0 6 0 a3 3 0 1 0 -6 0zM987 318 a3 3 0 1 0 6 0 a3 3 0 1 0 -6 0z" fill="rgba(86, 50, 48, 1)"></path><path d="M498 -6L498 6L498 18L486 30L486 42L486 54L486 66L486 78L486 90L486 102L486 114L486 126L486 138L486 150L486 162L486 174L486 186L486 198" stroke="rgba(86, 50, 48, 1)" stroke-width="2"></path><path d="M483 198 a3 3 0 1 0 6 0 a3 3 0 1 0 -6 0z" fill="rgba(86, 50, 48, 1)"></path><path d="M966 18L966 30M990 54L1002 66L1002 78L1002 90M978 42L978 54M954 -6L954 6L966 18L978 30L978 42L990 54L990 66" stroke="rgba(12, 12, 12, 1)" stroke-width="2"></path><path d="M987 66 a3 3 0 1 0 6 0 a3 3 0 1 0 -6 0zM963 30 a3 3 0 1 0 6 0 a3 3 0 1 0 -6 0zM999 90 a3 3 0 1 0 6 0 a3 3 0 1 0 -6 0zM975 54 a3 3 0 1 0 6 0 a3 3 0 1 0 -6 0z" fill="rgba(12, 12, 12, 1)"></path><path d="M486 282L474 294M486 258L474 270L474 282M474 246L474 258M486 -6L486 6L486 18L474 30L474 42L474 54L474 66L474 78L474 90L474 102L474 114L474 126L474 138L474 150L474 162L474 174L474 186L474 198L474 210L474 222L474 234L474 246L486 258L486 270L486 282L486 294L474 306L474 318L474 330L474 342L474 354L462 366L462 378" stroke="rgba(134, 14, 10, 1)" stroke-width="2"></path><path d="M459 378 a3 3 0 1 0 6 0 a3 3 0 1 0 -6 0zM471 294 a3 3 0 1 0 6 0 a3 3 0 1 0 -6 0zM471 282 a3 3 0 1 0 6 0 a3 3 0 1 0 -6 0zM471 258 a3 3 0 1 0 6 0 a3 3 0 1 0 -6 0z" fill="rgba(134, 14, 10, 1)"></path><path d="M990 162L990 174M1014 114L1014 126L1014 138L1014 150L1014 162M1014 270L1026 282L1026 294L1026 306L1026 318L1026 330L1026 342L1026 354M1002 174L1014 186L1014 198L1014 210L1014 222M990 138L1002 150L1002 162M1014 258L1026 270M966 -6L966 6L978 18L990 30L1002 42L1014 54L1014 66L1014 78L1014 90L1014 102L1014 114L1002 126L990 138L990 150L990 162L1002 174L1002 186L990 198L990 210L1002 222L1002 234L1014 246L1014 258L1014 270L1014 282L1014 294L1014 306" stroke="rgba(12, 12, 12, 1)" stroke-width="2"></path><path d="M1011 306 a3 3 0 1 0 6 0 a3 3 0 1 0 -6 0zM987 174 a3 3 0 1 0 6 0 a3 3 0 1 0 -6 0zM1011 162 a3 3 0 1 0 6 0 a3 3 0 1 0 -6 0zM1023 354 a3 3 0 1 0 6 0 a3 3 0 1 0 -6 0zM1011 222 a3 3 0 1 0 6 0 a3 3 0 1 0 -6 0zM999 162 a3 3 0 1 0 6 0 a3 3 0 1 0 -6 0zM1023 270 a3 3 0 1 0 6 0 a3 3 0 1 0 -6 0z" fill="rgba(12, 12, 12, 1)"></path><path d="M462 258L450 270M462 282L450 294L450 306L450 318L450 330M462 126L450 138L450 150L450 162L450 174L450 186L450 198L450 210L450 222L450 234L450 246M438 378L450 390L450 402L450 414L450 426M462 102L450 114L450 126M462 90L450 102M450 366L450 378M474 -6L474 6L474 18L462 30L462 42L462 54L462 66L462 78L462 90L462 102L462 114L462 126L462 138L462 150L462 162L462 174L462 186L462 198L462 210L462 222L462 234L462 246L462 258L462 270L462 282L462 294L462 306L462 318L462 330L462 342L462 354L450 366L438 378L438 390L438 402L438 414L438 426L438 438L438 450" stroke="rgba(134, 14, 10, 1)" stroke-width="2"></path><path d="M435 450 a3 3 0 1 0 6 0 a3 3 0 1 0 -6 0zM447 270 a3 3 0 1 0 6 0 a3 3 0 1 0 -6 0zM447 330 a3 3 0 1 0 6 0 a3 3 0 1 0 -6 0zM447 246 a3 3 0 1 0 6 0 a3 3 0 1 0 -6 0zM447 426 a3 3 0 1 0 6 0 a3 3 0 1 0 -6 0zM447 126 a3 3 0 1 0 6 0 a3 3 0 1 0 -6 0zM447 102 a3 3 0 1 0 6 0 a3 3 0 1 0 -6 0zM447 378 a3 3 0 1 0 6 0 a3 3 0 1 0 -6 0z" fill="rgba(134, 14, 10, 1)"></path><path d="M978 -6L978 6L990 18L1002 30L1014 42L1026 54L1026 66L1026 78" stroke="rgba(86, 50, 48, 1)" stroke-width="2"></path><path d="M1023 78 a3 3 0 1 0 6 0 a3 3 0 1 0 -6 0z" fill="rgba(86, 50, 48, 1)"></path><path d="M462 -6L462 6L462 18L450 30L450 42L450 54L450 66L450 78" stroke="rgba(12, 12, 12, 1)" stroke-width="2"></path><path d="M447 78 a3 3 0 1 0 6 0 a3 3 0 1 0 -6 0z" fill="rgba(12, 12, 12, 1)"></path><path d="M1038 318L1050 330M1062 210L1062 222L1062 234L1062 246L1062 258L1074 270L1074 282L1074 294L1074 306L1074 318L1074 330L1074 342L1074 354L1074 366L1074 378L1062 390L1062 402L1062 414M1050 222L1038 234L1038 246L1038 258L1038 270M1062 594L1074 606L1074 618L1074 630L1074 642L1074 654L1074 666L1074 678M1038 138L1038 150L1038 162L1038 174L1038 186L1038 198L1038 210M1038 126L1026 138L1026 150L1026 162L1026 174L1026 186L1026 198L1026 210L1026 222L1026 234L1026 246L1026 258M1062 558L1050 570M1050 522L1050 534L1050 546L1050 558M1038 90L1026 102L1026 114L1026 126M1062 198L1050 210M1050 438L1038 450L1038 462L1038 474M1038 414L1050 426M1038 390L1050 402L1050 414M990 -6L990 6L1002 18L1014 30L1026 42L1038 54L1038 66L1038 78L1038 90L1038 102L1038 114L1038 126L1038 138L1050 150L1062 162L1062 174L1062 186L1062 198L1062 210L1050 222L1050 234L1050 246L1050 258L1050 270L1038 282L1038 294L1038 306L1038 318L1038 330L1038 342L1038 354L1038 366L1038 378L1038 390L1038 402L1038 414L1038 426L1050 438L1050 450L1050 462L1050 474L1050 486L1050 498L1050 510L1050 522L1062 534L1062 546L1062 558L1062 570L1062 582L1062 594L1062 606" stroke="rgba(134, 14, 10, 1)" stroke-width="2"></path><path d="M1059 606 a3 3 0 1 0 6 0 a3 3 0 1 0 -6 0zM1047 330 a3 3 0 1 0 6 0 a3 3 0 1 0 -6 0zM1059 414 a3 3 0 1 0 6 0 a3 3 0 1 0 -6 0zM1035 270 a3 3 0 1 0 6 0 a3 3 0 1 0 -6 0zM1071 678 a3 3 0 1 0 6 0 a3 3 0 1 0 -6 0zM1035 210 a3 3 0 1 0 6 0 a3 3 0 1 0 -6 0zM1023 258 a3 3 0 1 0 6 0 a3 3 0 1 0 -6 0zM1047 570 a3 3 0 1 0 6 0 a3 3 0 1 0 -6 0zM1047 558 a3 3 0 1 0 6 0 a3 3 0 1 0 -6 0zM1023 126 a3 3 0 1 0 6 0 a3 3 0 1 0 -6 0zM1047 210 a3 3 0 1 0 6 0 a3 3 0 1 0 -6 0zM1035 474 a3 3 0 1 0 6 0 a3 3 0 1 0 -6 0zM1047 426 a3 3 0 1 0 6 0 a3 3 0 1 0 -6 0zM1047 414 a3 3 0 1 0 6 0 a3 3 0 1 0 -6 0z" fill="rgba(134, 14, 10, 1)"></path><path d="M438 174L426 186L426 198L426 210L426 222L426 234M438 150L426 162M438 318L426 330M450 -6L450 6L450 18L438 30L438 42L438 54L438 66L438 78L438 90L438 102L438 114L438 126L438 138L438 150L438 162L438 174L438 186L438 198L438 210L438 222L438 234L438 246L438 258L438 270L438 282L438 294L438 306L438 318L438 330L438 342L450 354" stroke="rgba(86, 50, 48, 1)" stroke-width="2"></path><path d="M447 354 a3 3 0 1 0 6 0 a3 3 0 1 0 -6 0zM423 234 a3 3 0 1 0 6 0 a3 3 0 1 0 -6 0zM423 162 a3 3 0 1 0 6 0 a3 3 0 1 0 -6 0zM423 330 a3 3 0 1 0 6 0 a3 3 0 1 0 -6 0z" fill="rgba(86, 50, 48, 1)"></path><path d="M1002 -6L1002 6L1014 18L1026 30L1038 42L1050 54L1050 66L1050 78L1050 90L1050 102L1050 114L1050 126L1050 138L1062 150L1074 162L1074 174L1074 186L1074 198L1074 210L1074 222L1074 234L1074 246L1074 258L1086 270" stroke="rgba(134, 14, 10, 1)" stroke-width="2"></path><path d="M1083 270 a3 3 0 1 0 6 0 a3 3 0 1 0 -6 0z" fill="rgba(134, 14, 10, 1)"></path><path d="M426 258L414 270L414 282L414 294L414 306L402 318L402 330L402 342L402 354L402 366L402 378L402 390M426 306L426 318M414 138L426 150M426 570L414 582L414 594L414 606M426 534L414 546L414 558L414 570L402 582L402 594L402 606M426 402L414 414L414 426L414 438L414 450L414 462L414 474L414 486L414 498M426 126L426 138M426 354L414 366M414 330L414 342L414 354M426 630L438 642M426 486L438 498L438 510L438 522M426 582L438 594L438 606L438 618L438 630M426 474L438 486L450 498L450 510L450 522L450 534L450 546L450 558L450 570L450 582L450 594L450 606M426 546L438 558L438 570L438 582M438 -6L438 6L438 18L426 30L426 42L426 54L426 66L426 78L426 90L426 102L426 114L426 126L414 138L414 150L414 162L414 174L414 186L414 198L414 210L414 222L414 234L414 246L426 258L426 270L426 282L426 294L426 306L414 318L414 330L426 342L426 354L426 366L426 378L426 390L426 402L426 414L426 426L426 438L426 450L426 462L426 474L426 486L426 498L426 510L426 522L426 534L426 546L426 558L426 570L426 582L426 594L426 606L426 618L426 630L426 642L426 654L426 666" stroke="rgba(134, 14, 10, 1)" stroke-width="2"></path><path d="M423 666 a3 3 0 1 0 6 0 a3 3 0 1 0 -6 0zM399 390 a3 3 0 1 0 6 0 a3 3 0 1 0 -6 0zM423 318 a3 3 0 1 0 6 0 a3 3 0 1 0 -6 0zM423 150 a3 3 0 1 0 6 0 a3 3 0 1 0 -6 0zM411 606 a3 3 0 1 0 6 0 a3 3 0 1 0 -6 0zM399 606 a3 3 0 1 0 6 0 a3 3 0 1 0 -6 0zM411 498 a3 3 0 1 0 6 0 a3 3 0 1 0 -6 0zM423 138 a3 3 0 1 0 6 0 a3 3 0 1 0 -6 0zM411 366 a3 3 0 1 0 6 0 a3 3 0 1 0 -6 0zM411 354 a3 3 0 1 0 6 0 a3 3 0 1 0 -6 0zM435 642 a3 3 0 1 0 6 0 a3 3 0 1 0 -6 0zM435 522 a3 3 0 1 0 6 0 a3 3 0 1 0 -6 0zM435 630 a3 3 0 1 0 6 0 a3 3 0 1 0 -6 0zM447 606 a3 3 0 1 0 6 0 a3 3 0 1 0 -6 0zM435 582 a3 3 0 1 0 6 0 a3 3 0 1 0 -6 0z" fill="rgba(134, 14, 10, 1)"></path><path d="M1098 294L1098 306L1098 318L1098 330M1062 126L1074 138L1086 150M1122 378L1110 390L1110 402M1122 426L1110 438L1098 450M1062 90L1074 102L1074 114L1074 126L1086 138M1122 414L1110 426L1098 438M1110 330L1110 342L1110 354L1110 366M1062 78L1074 90M1122 450L1122 462L1122 474L1122 486L1122 498L1122 510L1122 522L1122 534L1110 546L1110 558M1098 282L1086 294M1014 -6L1014 6L1026 18L1038 30L1050 42L1062 54L1062 66L1062 78L1062 90L1062 102L1062 114L1062 126L1062 138L1074 150L1086 162L1086 174L1086 186L1086 198L1086 210L1086 222L1086 234L1086 246L1086 258L1098 270L1098 282L1098 294L1110 306L1110 318L1110 330L1122 342L1122 354L1122 366L1122 378L1122 390L1122 402L1122 414L1122 426L1122 438L1122 450L1134 462" stroke="rgba(12, 12, 12, 1)" stroke-width="2"></path><path d="M1131 462 a3 3 0 1 0 6 0 a3 3 0 1 0 -6 0zM1095 330 a3 3 0 1 0 6 0 a3 3 0 1 0 -6 0zM1083 150 a3 3 0 1 0 6 0 a3 3 0 1 0 -6 0zM1107 402 a3 3 0 1 0 6 0 a3 3 0 1 0 -6 0zM1095 450 a3 3 0 1 0 6 0 a3 3 0 1 0 -6 0zM1083 138 a3 3 0 1 0 6 0 a3 3 0 1 0 -6 0zM1095 438 a3 3 0 1 0 6 0 a3 3 0 1 0 -6 0zM1107 366 a3 3 0 1 0 6 0 a3 3 0 1 0 -6 0zM1071 90 a3 3 0 1 0 6 0 a3 3 0 1 0 -6 0zM1107 558 a3 3 0 1 0 6 0 a3 3 0 1 0 -6 0zM1083 294 a3 3 0 1 0 6 0 a3 3 0 1 0 -6 0z" fill="rgba(12, 12, 12, 1)"></path><path d="M390 258L402 270L402 282L402 294M402 234L390 246M390 270L378 282L378 294M402 246L402 258M426 6L414 18M390 306L378 318L378 330L378 342M426 -6L426 6L426 18L414 30L414 42L414 54L414 66L414 78L414 90L414 102L414 114L414 126L402 138L402 150L402 162L402 174L402 186L402 198L402 210L402 222L402 234L402 246L390 258L390 270L390 282L390 294L390 306L390 318" stroke="rgba(12, 12, 12, 1)" stroke-width="2"></path><path d="M387 318 a3 3 0 1 0 6 0 a3 3 0 1 0 -6 0zM399 294 a3 3 0 1 0 6 0 a3 3 0 1 0 -6 0zM387 246 a3 3 0 1 0 6 0 a3 3 0 1 0 -6 0zM375 294 a3 3 0 1 0 6 0 a3 3 0 1 0 -6 0zM399 258 a3 3 0 1 0 6 0 a3 3 0 1 0 -6 0zM411 18 a3 3 0 1 0 6 0 a3 3 0 1 0 -6 0zM375 342 a3 3 0 1 0 6 0 a3 3 0 1 0 -6 0z" fill="rgba(12, 12, 12, 1)"></path><path d="M1098 102L1086 114L1086 126M1134 438L1146 450M1026 -6L1026 6L1038 18L1050 30L1062 42L1074 54L1074 66L1086 78L1086 90L1098 102L1098 114L1098 126L1098 138L1098 150L1098 162L1098 174L1098 186L1098 198L1098 210L1098 222L1098 234L1098 246L1098 258L1110 270L1110 282L1110 294L1122 306L1122 318L1122 330L1134 342L1134 354L1134 366L1134 378L1134 390L1134 402L1134 414L1134 426L1134 438L1134 450L1146 462" stroke="rgba(12, 12, 12, 1)" stroke-width="2"></path><path d="M1143 462 a3 3 0 1 0 6 0 a3 3 0 1 0 -6 0zM1083 126 a3 3 0 1 0 6 0 a3 3 0 1 0 -6 0zM1143 450 a3 3 0 1 0 6 0 a3 3 0 1 0 -6 0z" fill="rgba(12, 12, 12, 1)"></path><path d="M402 90L390 102L390 114L390 126L378 138L366 150M354 678L342 690L342 702L342 714L342 726L342 738M378 534L390 546L390 558L390 570L390 582L390 594L390 606L390 618L390 630L390 642L378 654L378 666M378 498L390 510L390 522L390 534L402 546L402 558L402 570M378 450L366 462L366 474L366 486L366 498L366 510L354 522L354 534L354 546L354 558L354 570L354 582L354 594M378 462L390 474L390 486L390 498L402 510L402 522L402 534M390 210L378 222M378 630L378 642M378 594L366 606L366 618M366 414L378 426L390 438L402 450L402 462L402 474L402 486L402 498M390 222L390 234M366 426L366 438L366 450L354 462M366 402L378 414L390 426L402 438M390 198L378 210M378 582L366 594M414 -6L402 6L402 18L402 30L402 42L402 54L402 66L402 78L402 90L402 102L402 114L402 126L390 138L390 150L390 162L390 174L390 186L390 198L390 210L390 222L378 234L378 246L378 258L366 270L366 282L366 294L366 306L366 318L366 330L366 342L366 354L366 366L366 378L366 390L366 402L366 414L366 426L378 438L378 450L378 462L378 474L378 486L378 498L378 510L378 522L378 534L378 546L378 558L378 570L378 582L378 594L378 606L378 618L378 630L366 642L366 654L366 666L354 678L354 690L354 702L354 714" stroke="rgba(86, 50, 48, 1)" stroke-width="2"></path><path d="M351 714 a3 3 0 1 0 6 0 a3 3 0 1 0 -6 0zM363 150 a3 3 0 1 0 6 0 a3 3 0 1 0 -6 0zM339 738 a3 3 0 1 0 6 0 a3 3 0 1 0 -6 0zM375 666 a3 3 0 1 0 6 0 a3 3 0 1 0 -6 0zM399 570 a3 3 0 1 0 6 0 a3 3 0 1 0 -6 0zM351 594 a3 3 0 1 0 6 0 a3 3 0 1 0 -6 0zM399 534 a3 3 0 1 0 6 0 a3 3 0 1 0 -6 0zM375 222 a3 3 0 1 0 6 0 a3 3 0 1 0 -6 0zM375 642 a3 3 0 1 0 6 0 a3 3 0 1 0 -6 0zM363 618 a3 3 0 1 0 6 0 a3 3 0 1 0 -6 0zM399 498 a3 3 0 1 0 6 0 a3 3 0 1 0 -6 0zM387 234 a3 3 0 1 0 6 0 a3 3 0 1 0 -6 0zM351 462 a3 3 0 1 0 6 0 a3 3 0 1 0 -6 0zM399 438 a3 3 0 1 0 6 0 a3 3 0 1 0 -6 0zM375 210 a3 3 0 1 0 6 0 a3 3 0 1 0 -6 0zM363 594 a3 3 0 1 0 6 0 a3 3 0 1 0 -6 0z" fill="rgba(86, 50, 48, 1)"></path><path d="M1110 222L1122 234L1122 246L1122 258L1134 270L1134 282L1134 294M1110 174L1122 186L1122 198L1122 210L1134 222L1134 234L1134 246L1134 258M1110 162L1122 174M1110 114L1122 126L1122 138L1122 150L1122 162M1146 402L1146 414L1146 426L1146 438M1038 -6L1038 6L1050 18L1062 30L1074 42L1086 54L1086 66L1098 78L1098 90L1110 102L1110 114L1110 126L1110 138L1110 150L1110 162L1110 174L1110 186L1110 198L1110 210L1110 222L1110 234L1110 246L1110 258L1122 270L1122 282L1122 294L1134 306L1134 318L1134 330L1146 342L1146 354L1146 366L1146 378L1146 390L1146 402L1158 414L1158 426L1158 438L1158 450L1158 462" stroke="rgba(86, 50, 48, 1)" stroke-width="2"></path><path d="M1155 462 a3 3 0 1 0 6 0 a3 3 0 1 0 -6 0zM1131 294 a3 3 0 1 0 6 0 a3 3 0 1 0 -6 0zM1131 258 a3 3 0 1 0 6 0 a3 3 0 1 0 -6 0zM1119 174 a3 3 0 1 0 6 0 a3 3 0 1 0 -6 0zM1119 162 a3 3 0 1 0 6 0 a3 3 0 1 0 -6 0zM1143 438 a3 3 0 1 0 6 0 a3 3 0 1 0 -6 0z" fill="rgba(86, 50, 48, 1)"></path><path d="M354 126L366 138M354 174L366 186L366 198M366 102L366 114L366 126M354 294L342 306L342 318M366 246L354 258M366 234L354 246M366 210L354 222L354 234M402 -6L390 6L390 18L390 30L390 42L390 54L390 66L390 78L378 90L366 102L354 114L354 126L354 138L354 150L354 162L354 174L354 186L354 198L366 210L366 222L366 234L366 246L366 258L354 270L354 282L354 294L354 306L354 318L354 330L354 342" stroke="rgba(86, 50, 48, 1)" stroke-width="2"></path><path d="M351 342 a3 3 0 1 0 6 0 a3 3 0 1 0 -6 0zM363 138 a3 3 0 1 0 6 0 a3 3 0 1 0 -6 0zM363 198 a3 3 0 1 0 6 0 a3 3 0 1 0 -6 0zM363 126 a3 3 0 1 0 6 0 a3 3 0 1 0 -6 0zM339 318 a3 3 0 1 0 6 0 a3 3 0 1 0 -6 0zM351 258 a3 3 0 1 0 6 0 a3 3 0 1 0 -6 0zM351 246 a3 3 0 1 0 6 0 a3 3 0 1 0 -6 0zM351 234 a3 3 0 1 0 6 0 a3 3 0 1 0 -6 0z" fill="rgba(86, 50, 48, 1)"></path><path d="M1170 522L1158 534M1158 354L1170 366L1170 378L1170 390L1170 402M1182 486L1182 498M1170 438L1182 450M1170 450L1170 462L1170 474M1170 510L1158 522L1146 534L1146 546L1146 558L1146 570L1146 582L1146 594L1146 606L1146 618L1146 630L1146 642M1146 198L1134 210M1170 426L1182 438M1098 54L1098 66M1170 558L1158 570M1134 174L1134 186L1134 198M1170 570L1182 582L1182 594L1170 606L1170 618L1170 630L1170 642L1170 654L1170 666L1170 678L1170 690L1170 702L1170 714L1170 726L1170 738M1050 -6L1050 6L1062 18L1074 30L1086 42L1098 54L1110 66L1110 78L1110 90L1122 102L1134 114L1134 126L1134 138L1134 150L1134 162L1134 174L1146 186L1146 198L1146 210L1146 222L1146 234L1146 246L1146 258L1146 270L1146 282L1146 294L1146 306L1146 318L1146 330L1158 342L1158 354L1158 366L1158 378L1158 390L1158 402L1170 414L1170 426L1170 438L1170 450L1182 462L1182 474L1182 486L1170 498L1170 510L1170 522L1170 534L1170 546L1170 558L1170 570L1170 582" stroke="rgba(12, 12, 12, 1)" stroke-width="2"></path><path d="M1167 582 a3 3 0 1 0 6 0 a3 3 0 1 0 -6 0zM1155 534 a3 3 0 1 0 6 0 a3 3 0 1 0 -6 0zM1167 402 a3 3 0 1 0 6 0 a3 3 0 1 0 -6 0zM1179 498 a3 3 0 1 0 6 0 a3 3 0 1 0 -6 0zM1179 450 a3 3 0 1 0 6 0 a3 3 0 1 0 -6 0zM1167 474 a3 3 0 1 0 6 0 a3 3 0 1 0 -6 0zM1143 642 a3 3 0 1 0 6 0 a3 3 0 1 0 -6 0zM1131 210 a3 3 0 1 0 6 0 a3 3 0 1 0 -6 0zM1179 438 a3 3 0 1 0 6 0 a3 3 0 1 0 -6 0zM1095 66 a3 3 0 1 0 6 0 a3 3 0 1 0 -6 0zM1155 570 a3 3 0 1 0 6 0 a3 3 0 1 0 -6 0zM1131 198 a3 3 0 1 0 6 0 a3 3 0 1 0 -6 0zM1167 738 a3 3 0 1 0 6 0 a3 3 0 1 0 -6 0z" fill="rgba(12, 12, 12, 1)"></path><path d="M390 -6L378 6L378 18L378 30L378 42L378 54L378 66L378 78" stroke="rgba(12, 12, 12, 1)" stroke-width="2"></path><path d="M375 78 a3 3 0 1 0 6 0 a3 3 0 1 0 -6 0z" fill="rgba(12, 12, 12, 1)"></path><path d="M1194 426L1206 438L1206 450L1206 462L1206 474L1206 486L1206 498L1206 510L1206 522L1206 534L1206 546L1206 558L1206 570L1206 582L1206 594L1206 606L1206 618M1182 366L1194 378L1194 390L1194 402L1194 414L1206 426L1218 438L1218 450L1218 462M1182 510L1194 522L1194 534L1194 546L1194 558L1194 570L1194 582L1194 594L1182 606L1182 618L1182 630L1182 642L1182 654L1182 666L1182 678L1182 690L1182 702L1182 714M1182 414L1182 426M1182 354L1194 366M1194 498L1194 510M1170 342L1170 354M1062 -6L1062 6L1074 18L1086 30L1098 42L1110 54L1122 66L1122 78L1122 90L1134 102L1146 114L1146 126L1146 138L1146 150L1146 162L1146 174L1158 186L1158 198L1158 210L1158 222L1158 234L1158 246L1158 258L1158 270L1158 282L1158 294L1158 306L1158 318L1158 330L1170 342L1182 354L1182 366L1182 378L1182 390L1182 402L1182 414L1194 426L1194 438L1194 450L1194 462L1194 474L1194 486L1194 498L1182 510L1182 522L1182 534L1182 546L1182 558" stroke="rgba(86, 50, 48, 1)" stroke-width="2"></path><path d="M1179 558 a3 3 0 1 0 6 0 a3 3 0 1 0 -6 0zM1203 618 a3 3 0 1 0 6 0 a3 3 0 1 0 -6 0zM1215 462 a3 3 0 1 0 6 0 a3 3 0 1 0 -6 0zM1179 714 a3 3 0 1 0 6 0 a3 3 0 1 0 -6 0zM1179 426 a3 3 0 1 0 6 0 a3 3 0 1 0 -6 0zM1191 366 a3 3 0 1 0 6 0 a3 3 0 1 0 -6 0zM1191 510 a3 3 0 1 0 6 0 a3 3 0 1 0 -6 0zM1167 354 a3 3 0 1 0 6 0 a3 3 0 1 0 -6 0z" fill="rgba(86, 50, 48, 1)"></path><path d="M378 -6L366 6L366 18L366 30L366 42L366 54L366 66L366 78L366 90L354 102L342 114L342 126L342 138L342 150L342 162L342 174L342 186L342 198L342 210L342 222L342 234L342 246L342 258L342 270" stroke="rgba(134, 14, 10, 1)" stroke-width="2"></path><path d="M339 270 a3 3 0 1 0 6 0 a3 3 0 1 0 -6 0z" fill="rgba(134, 14, 10, 1)"></path><path d="M1170 258L1182 270L1182 282L1182 294L1194 306L1194 318L1194 330L1194 342L1194 354M1170 318L1182 330M1134 78L1146 90L1158 102M1158 114L1170 126L1170 138L1170 150M1170 234L1182 246L1182 258L1194 270L1206 282L1206 294L1206 306L1206 318L1206 330L1206 342M1170 210L1182 222L1182 234L1194 246L1194 258M1170 186L1182 198L1182 210L1194 222L1194 234M1074 -6L1074 6L1086 18L1098 30L1110 42L1122 54L1134 66L1134 78L1134 90L1146 102L1158 114L1158 126L1158 138L1158 150L1158 162L1158 174L1170 186L1170 198L1170 210L1170 222L1170 234L1170 246L1170 258L1170 270L1170 282L1170 294L1170 306L1170 318L1170 330L1182 342" stroke="rgba(86, 50, 48, 1)" stroke-width="2"></path><path d="M1179 342 a3 3 0 1 0 6 0 a3 3 0 1 0 -6 0zM1191 354 a3 3 0 1 0 6 0 a3 3 0 1 0 -6 0zM1179 330 a3 3 0 1 0 6 0 a3 3 0 1 0 -6 0zM1155 102 a3 3 0 1 0 6 0 a3 3 0 1 0 -6 0zM1167 150 a3 3 0 1 0 6 0 a3 3 0 1 0 -6 0zM1203 342 a3 3 0 1 0 6 0 a3 3 0 1 0 -6 0zM1191 258 a3 3 0 1 0 6 0 a3 3 0 1 0 -6 0zM1191 234 a3 3 0 1 0 6 0 a3 3 0 1 0 -6 0z" fill="rgba(86, 50, 48, 1)"></path><path d="M318 498L306 510L294 522M306 582L318 594L330 606M318 510L318 522L318 534L318 546L318 558L318 570L318 582L330 594L342 606L354 618L366 630M330 198L318 210L318 222L318 234L318 246L318 258L306 270L306 282L306 294L306 306L306 318L294 330L294 342L294 354L294 366L306 378L306 390L306 402L306 414L306 426L306 438M318 378L330 390L330 402L330 414M330 162L318 174L318 186L318 198L306 210L306 222L306 234L306 246L306 258L294 270M306 534L294 546L294 558L294 570L294 582M318 426L330 438L330 450L330 462L330 474L330 486L330 498L330 510L330 522L330 534L330 546L330 558L330 570M318 330L306 342M318 282L330 294L330 306L330 318L330 330M354 66L342 78L342 90L330 102L318 114M330 126L318 138L318 150L318 162L306 174L306 186M318 606L306 618L306 630L306 642L294 654M366 -6L354 6L354 18L354 30L354 42L354 54L354 66L354 78L354 90L342 102L330 114L330 126L330 138L330 150L330 162L330 174L330 186L330 198L330 210L330 222L330 234L330 246L330 258L318 270L318 282L318 294L318 306L318 318L318 330L318 342L318 354L318 366L318 378L318 390L318 402L318 414L318 426L318 438L318 450L318 462L318 474L318 486L318 498L318 510L306 522L306 534L306 546L306 558L306 570L306 582L306 594L318 606L318 618" stroke="rgba(134, 14, 10, 1)" stroke-width="2"></path><path d="M315 618 a3 3 0 1 0 6 0 a3 3 0 1 0 -6 0zM291 522 a3 3 0 1 0 6 0 a3 3 0 1 0 -6 0zM327 606 a3 3 0 1 0 6 0 a3 3 0 1 0 -6 0zM363 630 a3 3 0 1 0 6 0 a3 3 0 1 0 -6 0zM303 438 a3 3 0 1 0 6 0 a3 3 0 1 0 -6 0zM327 414 a3 3 0 1 0 6 0 a3 3 0 1 0 -6 0zM291 270 a3 3 0 1 0 6 0 a3 3 0 1 0 -6 0zM291 582 a3 3 0 1 0 6 0 a3 3 0 1 0 -6 0zM327 570 a3 3 0 1 0 6 0 a3 3 0 1 0 -6 0zM303 342 a3 3 0 1 0 6 0 a3 3 0 1 0 -6 0zM327 330 a3 3 0 1 0 6 0 a3 3 0 1 0 -6 0zM315 114 a3 3 0 1 0 6 0 a3 3 0 1 0 -6 0zM303 186 a3 3 0 1 0 6 0 a3 3 0 1 0 -6 0zM291 654 a3 3 0 1 0 6 0 a3 3 0 1 0 -6 0z" fill="rgba(134, 14, 10, 1)"></path></g></g><defs><mask id="SvgjsMask2748"><rect width="1440" height="1200" fill="#ffffff"></rect></mask><radialGradient cx="50%" cy="50%" r="937.23" gradientUnits="userSpaceOnUse" id="SvgjsRadialGradient2749"><stop stop-color="rgba(154, 155, 156, 1)" offset="0"></stop><stop stop-color="rgba(59, 55, 55, 1)" offset="1"></stop></radialGradient><mask id="SvgjsMask2750"><rect width="1440" height="1200" fill="white"></rect><path d="M712.5 234 a1.5 1.5 0 1 0 3 0 a1.5 1.5 0 1 0 -3 0zM724.5 246 a1.5 1.5 0 1 0 3 0 a1.5 1.5 0 1 0 -3 0zM736.5 222 a1.5 1.5 0 1 0 3 0 a1.5 1.5 0 1 0 -3 0zM724.5 162 a1.5 1.5 0 1 0 3 0 a1.5 1.5 0 1 0 -3 0zM712.5 54 a1.5 1.5 0 1 0 3 0 a1.5 1.5 0 1 0 -3 0zM712.5 78 a1.5 1.5 0 1 0 3 0 a1.5 1.5 0 1 0 -3 0z" fill="black"></path><path d="M700.5 462 a1.5 1.5 0 1 0 3 0 a1.5 1.5 0 1 0 -3 0zM688.5 414 a1.5 1.5 0 1 0 3 0 a1.5 1.5 0 1 0 -3 0zM712.5 402 a1.5 1.5 0 1 0 3 0 a1.5 1.5 0 1 0 -3 0zM688.5 222 a1.5 1.5 0 1 0 3 0 a1.5 1.5 0 1 0 -3 0zM688.5 354 a1.5 1.5 0 1 0 3 0 a1.5 1.5 0 1 0 -3 0zM724.5 354 a1.5 1.5 0 1 0 3 0 a1.5 1.5 0 1 0 -3 0zM676.5 318 a1.5 1.5 0 1 0 3 0 a1.5 1.5 0 1 0 -3 0zM688.5 474 a1.5 1.5 0 1 0 3 0 a1.5 1.5 0 1 0 -3 0zM736.5 306 a1.5 1.5 0 1 0 3 0 a1.5 1.5 0 1 0 -3 0zM712.5 498 a1.5 1.5 0 1 0 3 0 a1.5 1.5 0 1 0 -3 0zM700.5 186 a1.5 1.5 0 1 0 3 0 a1.5 1.5 0 1 0 -3 0z" fill="black"></path><path d="M760.5 486 a1.5 1.5 0 1 0 3 0 a1.5 1.5 0 1 0 -3 0zM724.5 78 a1.5 1.5 0 1 0 3 0 a1.5 1.5 0 1 0 -3 0zM784.5 510 a1.5 1.5 0 1 0 3 0 a1.5 1.5 0 1 0 -3 0zM760.5 366 a1.5 1.5 0 1 0 3 0 a1.5 1.5 0 1 0 -3 0zM760.5 318 a1.5 1.5 0 1 0 3 0 a1.5 1.5 0 1 0 -3 0zM724.5 126 a1.5 1.5 0 1 0 3 0 a1.5 1.5 0 1 0 -3 0zM748.5 246 a1.5 1.5 0 1 0 3 0 a1.5 1.5 0 1 0 -3 0zM772.5 438 a1.5 1.5 0 1 0 3 0 a1.5 1.5 0 1 0 -3 0zM748.5 138 a1.5 1.5 0 1 0 3 0 a1.5 1.5 0 1 0 -3 0zM748.5 174 a1.5 1.5 0 1 0 3 0 a1.5 1.5 0 1 0 -3 0zM760.5 210 a1.5 1.5 0 1 0 3 0 a1.5 1.5 0 1 0 -3 0z" fill="black"></path><path d="M652.5 594 a1.5 1.5 0 1 0 3 0 a1.5 1.5 0 1 0 -3 0zM664.5 306 a1.5 1.5 0 1 0 3 0 a1.5 1.5 0 1 0 -3 0zM664.5 618 a1.5 1.5 0 1 0 3 0 a1.5 1.5 0 1 0 -3 0zM652.5 378 a1.5 1.5 0 1 0 3 0 a1.5 1.5 0 1 0 -3 0zM676.5 462 a1.5 1.5 0 1 0 3 0 a1.5 1.5 0 1 0 -3 0zM664.5 522 a1.5 1.5 0 1 0 3 0 a1.5 1.5 0 1 0 -3 0zM688.5 546 a1.5 1.5 0 1 0 3 0 a1.5 1.5 0 1 0 -3 0zM664.5 150 a1.5 1.5 0 1 0 3 0 a1.5 1.5 0 1 0 -3 0zM664.5 726 a1.5 1.5 0 1 0 3 0 a1.5 1.5 0 1 0 -3 0zM676.5 402 a1.5 1.5 0 1 0 3 0 a1.5 1.5 0 1 0 -3 0zM664.5 90 a1.5 1.5 0 1 0 3 0 a1.5 1.5 0 1 0 -3 0zM664.5 582 a1.5 1.5 0 1 0 3 0 a1.5 1.5 0 1 0 -3 0zM676.5 606 a1.5 1.5 0 1 0 3 0 a1.5 1.5 0 1 0 -3 0z" fill="black"></path><path d="M784.5 606 a1.5 1.5 0 1 0 3 0 a1.5 1.5 0 1 0 -3 0zM796.5 594 a1.5 1.5 0 1 0 3 0 a1.5 1.5 0 1 0 -3 0zM772.5 582 a1.5 1.5 0 1 0 3 0 a1.5 1.5 0 1 0 -3 0zM808.5 462 a1.5 1.5 0 1 0 3 0 a1.5 1.5 0 1 0 -3 0zM760.5 162 a1.5 1.5 0 1 0 3 0 a1.5 1.5 0 1 0 -3 0zM808.5 558 a1.5 1.5 0 1 0 3 0 a1.5 1.5 0 1 0 -3 0zM772.5 558 a1.5 1.5 0 1 0 3 0 a1.5 1.5 0 1 0 -3 0zM748.5 114 a1.5 1.5 0 1 0 3 0 a1.5 1.5 0 1 0 -3 0zM772.5 630 a1.5 1.5 0 1 0 3 0 a1.5 1.5 0 1 0 -3 0zM796.5 558 a1.5 1.5 0 1 0 3 0 a1.5 1.5 0 1 0 -3 0zM796.5 546 a1.5 1.5 0 1 0 3 0 a1.5 1.5 0 1 0 -3 0zM772.5 150 a1.5 1.5 0 1 0 3 0 a1.5 1.5 0 1 0 -3 0zM748.5 90 a1.5 1.5 0 1 0 3 0 a1.5 1.5 0 1 0 -3 0z" fill="black"></path><path d="M640.5 558 a1.5 1.5 0 1 0 3 0 a1.5 1.5 0 1 0 -3 0zM628.5 582 a1.5 1.5 0 1 0 3 0 a1.5 1.5 0 1 0 -3 0zM628.5 390 a1.5 1.5 0 1 0 3 0 a1.5 1.5 0 1 0 -3 0zM652.5 126 a1.5 1.5 0 1 0 3 0 a1.5 1.5 0 1 0 -3 0zM652.5 234 a1.5 1.5 0 1 0 3 0 a1.5 1.5 0 1 0 -3 0zM640.5 414 a1.5 1.5 0 1 0 3 0 a1.5 1.5 0 1 0 -3 0zM652.5 102 a1.5 1.5 0 1 0 3 0 a1.5 1.5 0 1 0 -3 0zM628.5 342 a1.5 1.5 0 1 0 3 0 a1.5 1.5 0 1 0 -3 0zM628.5 486 a1.5 1.5 0 1 0 3 0 a1.5 1.5 0 1 0 -3 0zM604.5 390 a1.5 1.5 0 1 0 3 0 a1.5 1.5 0 1 0 -3 0zM628.5 414 a1.5 1.5 0 1 0 3 0 a1.5 1.5 0 1 0 -3 0zM604.5 354 a1.5 1.5 0 1 0 3 0 a1.5 1.5 0 1 0 -3 0zM664.5 138 a1.5 1.5 0 1 0 3 0 a1.5 1.5 0 1 0 -3 0z" fill="black"></path><path d="M796.5 366 a1.5 1.5 0 1 0 3 0 a1.5 1.5 0 1 0 -3 0zM784.5 114 a1.5 1.5 0 1 0 3 0 a1.5 1.5 0 1 0 -3 0zM784.5 90 a1.5 1.5 0 1 0 3 0 a1.5 1.5 0 1 0 -3 0zM808.5 366 a1.5 1.5 0 1 0 3 0 a1.5 1.5 0 1 0 -3 0zM820.5 426 a1.5 1.5 0 1 0 3 0 a1.5 1.5 0 1 0 -3 0z" fill="black"></path><path d="M832.5 618 a1.5 1.5 0 1 0 3 0 a1.5 1.5 0 1 0 -3 0zM820.5 606 a1.5 1.5 0 1 0 3 0 a1.5 1.5 0 1 0 -3 0zM772.5 54 a1.5 1.5 0 1 0 3 0 a1.5 1.5 0 1 0 -3 0zM844.5 738 a1.5 1.5 0 1 0 3 0 a1.5 1.5 0 1 0 -3 0zM868.5 642 a1.5 1.5 0 1 0 3 0 a1.5 1.5 0 1 0 -3 0zM820.5 534 a1.5 1.5 0 1 0 3 0 a1.5 1.5 0 1 0 -3 0zM808.5 294 a1.5 1.5 0 1 0 3 0 a1.5 1.5 0 1 0 -3 0zM796.5 738 a1.5 1.5 0 1 0 3 0 a1.5 1.5 0 1 0 -3 0zM844.5 414 a1.5 1.5 0 1 0 3 0 a1.5 1.5 0 1 0 -3 0zM820.5 498 a1.5 1.5 0 1 0 3 0 a1.5 1.5 0 1 0 -3 0zM820.5 486 a1.5 1.5 0 1 0 3 0 a1.5 1.5 0 1 0 -3 0zM820.5 342 a1.5 1.5 0 1 0 3 0 a1.5 1.5 0 1 0 -3 0zM820.5 558 a1.5 1.5 0 1 0 3 0 a1.5 1.5 0 1 0 -3 0zM820.5 522 a1.5 1.5 0 1 0 3 0 a1.5 1.5 0 1 0 -3 0z" fill="black"></path><path d="M640.5 174 a1.5 1.5 0 1 0 3 0 a1.5 1.5 0 1 0 -3 0zM628.5 198 a1.5 1.5 0 1 0 3 0 a1.5 1.5 0 1 0 -3 0zM640.5 54 a1.5 1.5 0 1 0 3 0 a1.5 1.5 0 1 0 -3 0zM616.5 174 a1.5 1.5 0 1 0 3 0 a1.5 1.5 0 1 0 -3 0zM676.5 18 a1.5 1.5 0 1 0 3 0 a1.5 1.5 0 1 0 -3 0z" fill="black"></path><path d="M856.5 450 a1.5 1.5 0 1 0 3 0 a1.5 1.5 0 1 0 -3 0zM832.5 282 a1.5 1.5 0 1 0 3 0 a1.5 1.5 0 1 0 -3 0zM844.5 402 a1.5 1.5 0 1 0 3 0 a1.5 1.5 0 1 0 -3 0z" fill="black"></path><path d="M652.5 18 a1.5 1.5 0 1 0 3 0 a1.5 1.5 0 1 0 -3 0zM640.5 42 a1.5 1.5 0 1 0 3 0 a1.5 1.5 0 1 0 -3 0z" fill="black"></path><path d="M844.5 246 a1.5 1.5 0 1 0 3 0 a1.5 1.5 0 1 0 -3 0zM832.5 246 a1.5 1.5 0 1 0 3 0 a1.5 1.5 0 1 0 -3 0zM832.5 102 a1.5 1.5 0 1 0 3 0 a1.5 1.5 0 1 0 -3 0z" fill="black"></path><path d="M904.5 738 a1.5 1.5 0 1 0 3 0 a1.5 1.5 0 1 0 -3 0zM844.5 198 a1.5 1.5 0 1 0 3 0 a1.5 1.5 0 1 0 -3 0zM892.5 438 a1.5 1.5 0 1 0 3 0 a1.5 1.5 0 1 0 -3 0zM892.5 738 a1.5 1.5 0 1 0 3 0 a1.5 1.5 0 1 0 -3 0zM856.5 270 a1.5 1.5 0 1 0 3 0 a1.5 1.5 0 1 0 -3 0zM880.5 738 a1.5 1.5 0 1 0 3 0 a1.5 1.5 0 1 0 -3 0zM880.5 678 a1.5 1.5 0 1 0 3 0 a1.5 1.5 0 1 0 -3 0zM868.5 618 a1.5 1.5 0 1 0 3 0 a1.5 1.5 0 1 0 -3 0zM856.5 486 a1.5 1.5 0 1 0 3 0 a1.5 1.5 0 1 0 -3 0zM868.5 378 a1.5 1.5 0 1 0 3 0 a1.5 1.5 0 1 0 -3 0zM892.5 594 a1.5 1.5 0 1 0 3 0 a1.5 1.5 0 1 0 -3 0zM868.5 342 a1.5 1.5 0 1 0 3 0 a1.5 1.5 0 1 0 -3 0zM880.5 642 a1.5 1.5 0 1 0 3 0 a1.5 1.5 0 1 0 -3 0zM856.5 594 a1.5 1.5 0 1 0 3 0 a1.5 1.5 0 1 0 -3 0zM880.5 618 a1.5 1.5 0 1 0 3 0 a1.5 1.5 0 1 0 -3 0zM880.5 606 a1.5 1.5 0 1 0 3 0 a1.5 1.5 0 1 0 -3 0z" fill="black"></path><path d="M628.5 138 a1.5 1.5 0 1 0 3 0 a1.5 1.5 0 1 0 -3 0zM616.5 42 a1.5 1.5 0 1 0 3 0 a1.5 1.5 0 1 0 -3 0zM616.5 66 a1.5 1.5 0 1 0 3 0 a1.5 1.5 0 1 0 -3 0z" fill="black"></path><path d="M880.5 378 a1.5 1.5 0 1 0 3 0 a1.5 1.5 0 1 0 -3 0zM868.5 234 a1.5 1.5 0 1 0 3 0 a1.5 1.5 0 1 0 -3 0zM892.5 378 a1.5 1.5 0 1 0 3 0 a1.5 1.5 0 1 0 -3 0zM892.5 342 a1.5 1.5 0 1 0 3 0 a1.5 1.5 0 1 0 -3 0zM844.5 126 a1.5 1.5 0 1 0 3 0 a1.5 1.5 0 1 0 -3 0zM868.5 306 a1.5 1.5 0 1 0 3 0 a1.5 1.5 0 1 0 -3 0zM868.5 186 a1.5 1.5 0 1 0 3 0 a1.5 1.5 0 1 0 -3 0zM868.5 330 a1.5 1.5 0 1 0 3 0 a1.5 1.5 0 1 0 -3 0zM868.5 174 a1.5 1.5 0 1 0 3 0 a1.5 1.5 0 1 0 -3 0z" fill="black"></path><path d="M616.5 18 a1.5 1.5 0 1 0 3 0 a1.5 1.5 0 1 0 -3 0z" fill="black"></path><path d="M916.5 726 a1.5 1.5 0 1 0 3 0 a1.5 1.5 0 1 0 -3 0zM892.5 426 a1.5 1.5 0 1 0 3 0 a1.5 1.5 0 1 0 -3 0zM892.5 582 a1.5 1.5 0 1 0 3 0 a1.5 1.5 0 1 0 -3 0zM868.5 162 a1.5 1.5 0 1 0 3 0 a1.5 1.5 0 1 0 -3 0zM928.5 738 a1.5 1.5 0 1 0 3 0 a1.5 1.5 0 1 0 -3 0zM916.5 618 a1.5 1.5 0 1 0 3 0 a1.5 1.5 0 1 0 -3 0zM892.5 186 a1.5 1.5 0 1 0 3 0 a1.5 1.5 0 1 0 -3 0zM952.5 666 a1.5 1.5 0 1 0 3 0 a1.5 1.5 0 1 0 -3 0zM916.5 366 a1.5 1.5 0 1 0 3 0 a1.5 1.5 0 1 0 -3 0zM892.5 174 a1.5 1.5 0 1 0 3 0 a1.5 1.5 0 1 0 -3 0zM916.5 438 a1.5 1.5 0 1 0 3 0 a1.5 1.5 0 1 0 -3 0zM916.5 342 a1.5 1.5 0 1 0 3 0 a1.5 1.5 0 1 0 -3 0zM928.5 534 a1.5 1.5 0 1 0 3 0 a1.5 1.5 0 1 0 -3 0zM904.5 294 a1.5 1.5 0 1 0 3 0 a1.5 1.5 0 1 0 -3 0zM928.5 510 a1.5 1.5 0 1 0 3 0 a1.5 1.5 0 1 0 -3 0zM892.5 414 a1.5 1.5 0 1 0 3 0 a1.5 1.5 0 1 0 -3 0z" fill="black"></path><path d="M616.5 150 a1.5 1.5 0 1 0 3 0 a1.5 1.5 0 1 0 -3 0zM604.5 126 a1.5 1.5 0 1 0 3 0 a1.5 1.5 0 1 0 -3 0zM604.5 186 a1.5 1.5 0 1 0 3 0 a1.5 1.5 0 1 0 -3 0zM604.5 78 a1.5 1.5 0 1 0 3 0 a1.5 1.5 0 1 0 -3 0z" fill="black"></path><path d="M892.5 234 a1.5 1.5 0 1 0 3 0 a1.5 1.5 0 1 0 -3 0zM892.5 126 a1.5 1.5 0 1 0 3 0 a1.5 1.5 0 1 0 -3 0zM904.5 270 a1.5 1.5 0 1 0 3 0 a1.5 1.5 0 1 0 -3 0zM892.5 162 a1.5 1.5 0 1 0 3 0 a1.5 1.5 0 1 0 -3 0zM904.5 222 a1.5 1.5 0 1 0 3 0 a1.5 1.5 0 1 0 -3 0zM904.5 210 a1.5 1.5 0 1 0 3 0 a1.5 1.5 0 1 0 -3 0z" fill="black"></path><path d="M580.5 558 a1.5 1.5 0 1 0 3 0 a1.5 1.5 0 1 0 -3 0zM592.5 174 a1.5 1.5 0 1 0 3 0 a1.5 1.5 0 1 0 -3 0zM592.5 546 a1.5 1.5 0 1 0 3 0 a1.5 1.5 0 1 0 -3 0zM592.5 462 a1.5 1.5 0 1 0 3 0 a1.5 1.5 0 1 0 -3 0zM604.5 546 a1.5 1.5 0 1 0 3 0 a1.5 1.5 0 1 0 -3 0zM568.5 366 a1.5 1.5 0 1 0 3 0 a1.5 1.5 0 1 0 -3 0zM568.5 294 a1.5 1.5 0 1 0 3 0 a1.5 1.5 0 1 0 -3 0zM568.5 258 a1.5 1.5 0 1 0 3 0 a1.5 1.5 0 1 0 -3 0zM568.5 354 a1.5 1.5 0 1 0 3 0 a1.5 1.5 0 1 0 -3 0zM604.5 450 a1.5 1.5 0 1 0 3 0 a1.5 1.5 0 1 0 -3 0zM592.5 138 a1.5 1.5 0 1 0 3 0 a1.5 1.5 0 1 0 -3 0zM568.5 246 a1.5 1.5 0 1 0 3 0 a1.5 1.5 0 1 0 -3 0zM568.5 486 a1.5 1.5 0 1 0 3 0 a1.5 1.5 0 1 0 -3 0z" fill="black"></path><path d="M880.5 66 a1.5 1.5 0 1 0 3 0 a1.5 1.5 0 1 0 -3 0z" fill="black"></path><path d="M544.5 690 a1.5 1.5 0 1 0 3 0 a1.5 1.5 0 1 0 -3 0zM532.5 714 a1.5 1.5 0 1 0 3 0 a1.5 1.5 0 1 0 -3 0zM568.5 342 a1.5 1.5 0 1 0 3 0 a1.5 1.5 0 1 0 -3 0zM580.5 702 a1.5 1.5 0 1 0 3 0 a1.5 1.5 0 1 0 -3 0zM568.5 126 a1.5 1.5 0 1 0 3 0 a1.5 1.5 0 1 0 -3 0zM568.5 234 a1.5 1.5 0 1 0 3 0 a1.5 1.5 0 1 0 -3 0zM592.5 738 a1.5 1.5 0 1 0 3 0 a1.5 1.5 0 1 0 -3 0zM580.5 330 a1.5 1.5 0 1 0 3 0 a1.5 1.5 0 1 0 -3 0zM580.5 642 a1.5 1.5 0 1 0 3 0 a1.5 1.5 0 1 0 -3 0zM568.5 546 a1.5 1.5 0 1 0 3 0 a1.5 1.5 0 1 0 -3 0zM556.5 738 a1.5 1.5 0 1 0 3 0 a1.5 1.5 0 1 0 -3 0zM568.5 690 a1.5 1.5 0 1 0 3 0 a1.5 1.5 0 1 0 -3 0zM544.5 582 a1.5 1.5 0 1 0 3 0 a1.5 1.5 0 1 0 -3 0zM568.5 102 a1.5 1.5 0 1 0 3 0 a1.5 1.5 0 1 0 -3 0z" fill="black"></path><path d="M892.5 78 a1.5 1.5 0 1 0 3 0 a1.5 1.5 0 1 0 -3 0zM880.5 42 a1.5 1.5 0 1 0 3 0 a1.5 1.5 0 1 0 -3 0zM880.5 30 a1.5 1.5 0 1 0 3 0 a1.5 1.5 0 1 0 -3 0z" fill="black"></path><path d="M532.5 630 a1.5 1.5 0 1 0 3 0 a1.5 1.5 0 1 0 -3 0zM532.5 378 a1.5 1.5 0 1 0 3 0 a1.5 1.5 0 1 0 -3 0zM532.5 450 a1.5 1.5 0 1 0 3 0 a1.5 1.5 0 1 0 -3 0zM520.5 618 a1.5 1.5 0 1 0 3 0 a1.5 1.5 0 1 0 -3 0zM520.5 354 a1.5 1.5 0 1 0 3 0 a1.5 1.5 0 1 0 -3 0zM520.5 558 a1.5 1.5 0 1 0 3 0 a1.5 1.5 0 1 0 -3 0zM520.5 594 a1.5 1.5 0 1 0 3 0 a1.5 1.5 0 1 0 -3 0zM544.5 570 a1.5 1.5 0 1 0 3 0 a1.5 1.5 0 1 0 -3 0zM532.5 270 a1.5 1.5 0 1 0 3 0 a1.5 1.5 0 1 0 -3 0zM520.5 546 a1.5 1.5 0 1 0 3 0 a1.5 1.5 0 1 0 -3 0zM532.5 522 a1.5 1.5 0 1 0 3 0 a1.5 1.5 0 1 0 -3 0zM532.5 258 a1.5 1.5 0 1 0 3 0 a1.5 1.5 0 1 0 -3 0z" fill="black"></path><path d="M952.5 582 a1.5 1.5 0 1 0 3 0 a1.5 1.5 0 1 0 -3 0zM928.5 438 a1.5 1.5 0 1 0 3 0 a1.5 1.5 0 1 0 -3 0zM916.5 426 a1.5 1.5 0 1 0 3 0 a1.5 1.5 0 1 0 -3 0zM940.5 330 a1.5 1.5 0 1 0 3 0 a1.5 1.5 0 1 0 -3 0zM928.5 294 a1.5 1.5 0 1 0 3 0 a1.5 1.5 0 1 0 -3 0zM940.5 606 a1.5 1.5 0 1 0 3 0 a1.5 1.5 0 1 0 -3 0zM928.5 474 a1.5 1.5 0 1 0 3 0 a1.5 1.5 0 1 0 -3 0zM916.5 414 a1.5 1.5 0 1 0 3 0 a1.5 1.5 0 1 0 -3 0zM928.5 606 a1.5 1.5 0 1 0 3 0 a1.5 1.5 0 1 0 -3 0zM928.5 234 a1.5 1.5 0 1 0 3 0 a1.5 1.5 0 1 0 -3 0zM916.5 306 a1.5 1.5 0 1 0 3 0 a1.5 1.5 0 1 0 -3 0zM928.5 558 a1.5 1.5 0 1 0 3 0 a1.5 1.5 0 1 0 -3 0zM928.5 366 a1.5 1.5 0 1 0 3 0 a1.5 1.5 0 1 0 -3 0z" fill="black"></path><path d="M496.5 738 a1.5 1.5 0 1 0 3 0 a1.5 1.5 0 1 0 -3 0zM508.5 714 a1.5 1.5 0 1 0 3 0 a1.5 1.5 0 1 0 -3 0zM520.5 402 a1.5 1.5 0 1 0 3 0 a1.5 1.5 0 1 0 -3 0zM496.5 462 a1.5 1.5 0 1 0 3 0 a1.5 1.5 0 1 0 -3 0zM520.5 378 a1.5 1.5 0 1 0 3 0 a1.5 1.5 0 1 0 -3 0zM532.5 222 a1.5 1.5 0 1 0 3 0 a1.5 1.5 0 1 0 -3 0zM484.5 738 a1.5 1.5 0 1 0 3 0 a1.5 1.5 0 1 0 -3 0zM520.5 666 a1.5 1.5 0 1 0 3 0 a1.5 1.5 0 1 0 -3 0zM472.5 738 a1.5 1.5 0 1 0 3 0 a1.5 1.5 0 1 0 -3 0zM472.5 690 a1.5 1.5 0 1 0 3 0 a1.5 1.5 0 1 0 -3 0zM496.5 438 a1.5 1.5 0 1 0 3 0 a1.5 1.5 0 1 0 -3 0zM520.5 474 a1.5 1.5 0 1 0 3 0 a1.5 1.5 0 1 0 -3 0zM532.5 246 a1.5 1.5 0 1 0 3 0 a1.5 1.5 0 1 0 -3 0zM508.5 738 a1.5 1.5 0 1 0 3 0 a1.5 1.5 0 1 0 -3 0zM532.5 174 a1.5 1.5 0 1 0 3 0 a1.5 1.5 0 1 0 -3 0zM520.5 306 a1.5 1.5 0 1 0 3 0 a1.5 1.5 0 1 0 -3 0z" fill="black"></path><path d="M940.5 306 a1.5 1.5 0 1 0 3 0 a1.5 1.5 0 1 0 -3 0zM928.5 198 a1.5 1.5 0 1 0 3 0 a1.5 1.5 0 1 0 -3 0zM952.5 294 a1.5 1.5 0 1 0 3 0 a1.5 1.5 0 1 0 -3 0z" fill="black"></path><path d="M532.5 138 a1.5 1.5 0 1 0 3 0 a1.5 1.5 0 1 0 -3 0z" fill="black"></path><path d="M940.5 174 a1.5 1.5 0 1 0 3 0 a1.5 1.5 0 1 0 -3 0zM940.5 150 a1.5 1.5 0 1 0 3 0 a1.5 1.5 0 1 0 -3 0zM940.5 138 a1.5 1.5 0 1 0 3 0 a1.5 1.5 0 1 0 -3 0zM916.5 54 a1.5 1.5 0 1 0 3 0 a1.5 1.5 0 1 0 -3 0z" fill="black"></path><path d="M460.5 726 a1.5 1.5 0 1 0 3 0 a1.5 1.5 0 1 0 -3 0zM472.5 462 a1.5 1.5 0 1 0 3 0 a1.5 1.5 0 1 0 -3 0zM436.5 726 a1.5 1.5 0 1 0 3 0 a1.5 1.5 0 1 0 -3 0zM508.5 210 a1.5 1.5 0 1 0 3 0 a1.5 1.5 0 1 0 -3 0zM484.5 654 a1.5 1.5 0 1 0 3 0 a1.5 1.5 0 1 0 -3 0zM484.5 534 a1.5 1.5 0 1 0 3 0 a1.5 1.5 0 1 0 -3 0zM424.5 738 a1.5 1.5 0 1 0 3 0 a1.5 1.5 0 1 0 -3 0zM496.5 390 a1.5 1.5 0 1 0 3 0 a1.5 1.5 0 1 0 -3 0zM448.5 714 a1.5 1.5 0 1 0 3 0 a1.5 1.5 0 1 0 -3 0zM508.5 162 a1.5 1.5 0 1 0 3 0 a1.5 1.5 0 1 0 -3 0zM520.5 66 a1.5 1.5 0 1 0 3 0 a1.5 1.5 0 1 0 -3 0zM484.5 642 a1.5 1.5 0 1 0 3 0 a1.5 1.5 0 1 0 -3 0zM448.5 630 a1.5 1.5 0 1 0 3 0 a1.5 1.5 0 1 0 -3 0zM508.5 234 a1.5 1.5 0 1 0 3 0 a1.5 1.5 0 1 0 -3 0zM472.5 486 a1.5 1.5 0 1 0 3 0 a1.5 1.5 0 1 0 -3 0zM472.5 678 a1.5 1.5 0 1 0 3 0 a1.5 1.5 0 1 0 -3 0z" fill="black"></path><path d="M964.5 258 a1.5 1.5 0 1 0 3 0 a1.5 1.5 0 1 0 -3 0zM952.5 258 a1.5 1.5 0 1 0 3 0 a1.5 1.5 0 1 0 -3 0zM940.5 114 a1.5 1.5 0 1 0 3 0 a1.5 1.5 0 1 0 -3 0z" fill="black"></path><path d="M520.5 78 a1.5 1.5 0 1 0 3 0 a1.5 1.5 0 1 0 -3 0zM520.5 30 a1.5 1.5 0 1 0 3 0 a1.5 1.5 0 1 0 -3 0zM508.5 90 a1.5 1.5 0 1 0 3 0 a1.5 1.5 0 1 0 -3 0z" fill="black"></path><path d="M964.5 606 a1.5 1.5 0 1 0 3 0 a1.5 1.5 0 1 0 -3 0zM952.5 318 a1.5 1.5 0 1 0 3 0 a1.5 1.5 0 1 0 -3 0zM976.5 582 a1.5 1.5 0 1 0 3 0 a1.5 1.5 0 1 0 -3 0zM964.5 390 a1.5 1.5 0 1 0 3 0 a1.5 1.5 0 1 0 -3 0zM964.5 102 a1.5 1.5 0 1 0 3 0 a1.5 1.5 0 1 0 -3 0zM988.5 570 a1.5 1.5 0 1 0 3 0 a1.5 1.5 0 1 0 -3 0zM964.5 354 a1.5 1.5 0 1 0 3 0 a1.5 1.5 0 1 0 -3 0zM964.5 462 a1.5 1.5 0 1 0 3 0 a1.5 1.5 0 1 0 -3 0zM964.5 78 a1.5 1.5 0 1 0 3 0 a1.5 1.5 0 1 0 -3 0zM964.5 690 a1.5 1.5 0 1 0 3 0 a1.5 1.5 0 1 0 -3 0zM976.5 354 a1.5 1.5 0 1 0 3 0 a1.5 1.5 0 1 0 -3 0zM964.5 438 a1.5 1.5 0 1 0 3 0 a1.5 1.5 0 1 0 -3 0zM952.5 354 a1.5 1.5 0 1 0 3 0 a1.5 1.5 0 1 0 -3 0zM964.5 222 a1.5 1.5 0 1 0 3 0 a1.5 1.5 0 1 0 -3 0z" fill="black"></path><path d="M472.5 438 a1.5 1.5 0 1 0 3 0 a1.5 1.5 0 1 0 -3 0zM508.5 138 a1.5 1.5 0 1 0 3 0 a1.5 1.5 0 1 0 -3 0zM460.5 438 a1.5 1.5 0 1 0 3 0 a1.5 1.5 0 1 0 -3 0zM448.5 438 a1.5 1.5 0 1 0 3 0 a1.5 1.5 0 1 0 -3 0zM496.5 126 a1.5 1.5 0 1 0 3 0 a1.5 1.5 0 1 0 -3 0zM484.5 246 a1.5 1.5 0 1 0 3 0 a1.5 1.5 0 1 0 -3 0zM496.5 102 a1.5 1.5 0 1 0 3 0 a1.5 1.5 0 1 0 -3 0zM460.5 402 a1.5 1.5 0 1 0 3 0 a1.5 1.5 0 1 0 -3 0z" fill="black"></path><path d="M1012.5 354 a1.5 1.5 0 1 0 3 0 a1.5 1.5 0 1 0 -3 0zM1012.5 402 a1.5 1.5 0 1 0 3 0 a1.5 1.5 0 1 0 -3 0zM1000.5 282 a1.5 1.5 0 1 0 3 0 a1.5 1.5 0 1 0 -3 0zM988.5 186 a1.5 1.5 0 1 0 3 0 a1.5 1.5 0 1 0 -3 0zM988.5 126 a1.5 1.5 0 1 0 3 0 a1.5 1.5 0 1 0 -3 0zM964.5 66 a1.5 1.5 0 1 0 3 0 a1.5 1.5 0 1 0 -3 0zM964.5 42 a1.5 1.5 0 1 0 3 0 a1.5 1.5 0 1 0 -3 0zM988.5 318 a1.5 1.5 0 1 0 3 0 a1.5 1.5 0 1 0 -3 0z" fill="black"></path><path d="M484.5 198 a1.5 1.5 0 1 0 3 0 a1.5 1.5 0 1 0 -3 0z" fill="black"></path><path d="M988.5 66 a1.5 1.5 0 1 0 3 0 a1.5 1.5 0 1 0 -3 0zM964.5 30 a1.5 1.5 0 1 0 3 0 a1.5 1.5 0 1 0 -3 0zM1000.5 90 a1.5 1.5 0 1 0 3 0 a1.5 1.5 0 1 0 -3 0zM976.5 54 a1.5 1.5 0 1 0 3 0 a1.5 1.5 0 1 0 -3 0z" fill="black"></path><path d="M460.5 378 a1.5 1.5 0 1 0 3 0 a1.5 1.5 0 1 0 -3 0zM472.5 294 a1.5 1.5 0 1 0 3 0 a1.5 1.5 0 1 0 -3 0zM472.5 282 a1.5 1.5 0 1 0 3 0 a1.5 1.5 0 1 0 -3 0zM472.5 258 a1.5 1.5 0 1 0 3 0 a1.5 1.5 0 1 0 -3 0z" fill="black"></path><path d="M1012.5 306 a1.5 1.5 0 1 0 3 0 a1.5 1.5 0 1 0 -3 0zM988.5 174 a1.5 1.5 0 1 0 3 0 a1.5 1.5 0 1 0 -3 0zM1012.5 162 a1.5 1.5 0 1 0 3 0 a1.5 1.5 0 1 0 -3 0zM1024.5 354 a1.5 1.5 0 1 0 3 0 a1.5 1.5 0 1 0 -3 0zM1012.5 222 a1.5 1.5 0 1 0 3 0 a1.5 1.5 0 1 0 -3 0zM1000.5 162 a1.5 1.5 0 1 0 3 0 a1.5 1.5 0 1 0 -3 0zM1024.5 270 a1.5 1.5 0 1 0 3 0 a1.5 1.5 0 1 0 -3 0z" fill="black"></path><path d="M436.5 450 a1.5 1.5 0 1 0 3 0 a1.5 1.5 0 1 0 -3 0zM448.5 270 a1.5 1.5 0 1 0 3 0 a1.5 1.5 0 1 0 -3 0zM448.5 330 a1.5 1.5 0 1 0 3 0 a1.5 1.5 0 1 0 -3 0zM448.5 246 a1.5 1.5 0 1 0 3 0 a1.5 1.5 0 1 0 -3 0zM448.5 426 a1.5 1.5 0 1 0 3 0 a1.5 1.5 0 1 0 -3 0zM448.5 126 a1.5 1.5 0 1 0 3 0 a1.5 1.5 0 1 0 -3 0zM448.5 102 a1.5 1.5 0 1 0 3 0 a1.5 1.5 0 1 0 -3 0zM448.5 378 a1.5 1.5 0 1 0 3 0 a1.5 1.5 0 1 0 -3 0z" fill="black"></path><path d="M1024.5 78 a1.5 1.5 0 1 0 3 0 a1.5 1.5 0 1 0 -3 0z" fill="black"></path><path d="M448.5 78 a1.5 1.5 0 1 0 3 0 a1.5 1.5 0 1 0 -3 0z" fill="black"></path><path d="M1060.5 606 a1.5 1.5 0 1 0 3 0 a1.5 1.5 0 1 0 -3 0zM1048.5 330 a1.5 1.5 0 1 0 3 0 a1.5 1.5 0 1 0 -3 0zM1060.5 414 a1.5 1.5 0 1 0 3 0 a1.5 1.5 0 1 0 -3 0zM1036.5 270 a1.5 1.5 0 1 0 3 0 a1.5 1.5 0 1 0 -3 0zM1072.5 678 a1.5 1.5 0 1 0 3 0 a1.5 1.5 0 1 0 -3 0zM1036.5 210 a1.5 1.5 0 1 0 3 0 a1.5 1.5 0 1 0 -3 0zM1024.5 258 a1.5 1.5 0 1 0 3 0 a1.5 1.5 0 1 0 -3 0zM1048.5 570 a1.5 1.5 0 1 0 3 0 a1.5 1.5 0 1 0 -3 0zM1048.5 558 a1.5 1.5 0 1 0 3 0 a1.5 1.5 0 1 0 -3 0zM1024.5 126 a1.5 1.5 0 1 0 3 0 a1.5 1.5 0 1 0 -3 0zM1048.5 210 a1.5 1.5 0 1 0 3 0 a1.5 1.5 0 1 0 -3 0zM1036.5 474 a1.5 1.5 0 1 0 3 0 a1.5 1.5 0 1 0 -3 0zM1048.5 426 a1.5 1.5 0 1 0 3 0 a1.5 1.5 0 1 0 -3 0zM1048.5 414 a1.5 1.5 0 1 0 3 0 a1.5 1.5 0 1 0 -3 0z" fill="black"></path><path d="M448.5 354 a1.5 1.5 0 1 0 3 0 a1.5 1.5 0 1 0 -3 0zM424.5 234 a1.5 1.5 0 1 0 3 0 a1.5 1.5 0 1 0 -3 0zM424.5 162 a1.5 1.5 0 1 0 3 0 a1.5 1.5 0 1 0 -3 0zM424.5 330 a1.5 1.5 0 1 0 3 0 a1.5 1.5 0 1 0 -3 0z" fill="black"></path><path d="M1084.5 270 a1.5 1.5 0 1 0 3 0 a1.5 1.5 0 1 0 -3 0z" fill="black"></path><path d="M424.5 666 a1.5 1.5 0 1 0 3 0 a1.5 1.5 0 1 0 -3 0zM400.5 390 a1.5 1.5 0 1 0 3 0 a1.5 1.5 0 1 0 -3 0zM424.5 318 a1.5 1.5 0 1 0 3 0 a1.5 1.5 0 1 0 -3 0zM424.5 150 a1.5 1.5 0 1 0 3 0 a1.5 1.5 0 1 0 -3 0zM412.5 606 a1.5 1.5 0 1 0 3 0 a1.5 1.5 0 1 0 -3 0zM400.5 606 a1.5 1.5 0 1 0 3 0 a1.5 1.5 0 1 0 -3 0zM412.5 498 a1.5 1.5 0 1 0 3 0 a1.5 1.5 0 1 0 -3 0zM424.5 138 a1.5 1.5 0 1 0 3 0 a1.5 1.5 0 1 0 -3 0zM412.5 366 a1.5 1.5 0 1 0 3 0 a1.5 1.5 0 1 0 -3 0zM412.5 354 a1.5 1.5 0 1 0 3 0 a1.5 1.5 0 1 0 -3 0zM436.5 642 a1.5 1.5 0 1 0 3 0 a1.5 1.5 0 1 0 -3 0zM436.5 522 a1.5 1.5 0 1 0 3 0 a1.5 1.5 0 1 0 -3 0zM436.5 630 a1.5 1.5 0 1 0 3 0 a1.5 1.5 0 1 0 -3 0zM448.5 606 a1.5 1.5 0 1 0 3 0 a1.5 1.5 0 1 0 -3 0zM436.5 582 a1.5 1.5 0 1 0 3 0 a1.5 1.5 0 1 0 -3 0z" fill="black"></path><path d="M1132.5 462 a1.5 1.5 0 1 0 3 0 a1.5 1.5 0 1 0 -3 0zM1096.5 330 a1.5 1.5 0 1 0 3 0 a1.5 1.5 0 1 0 -3 0zM1084.5 150 a1.5 1.5 0 1 0 3 0 a1.5 1.5 0 1 0 -3 0zM1108.5 402 a1.5 1.5 0 1 0 3 0 a1.5 1.5 0 1 0 -3 0zM1096.5 450 a1.5 1.5 0 1 0 3 0 a1.5 1.5 0 1 0 -3 0zM1084.5 138 a1.5 1.5 0 1 0 3 0 a1.5 1.5 0 1 0 -3 0zM1096.5 438 a1.5 1.5 0 1 0 3 0 a1.5 1.5 0 1 0 -3 0zM1108.5 366 a1.5 1.5 0 1 0 3 0 a1.5 1.5 0 1 0 -3 0zM1072.5 90 a1.5 1.5 0 1 0 3 0 a1.5 1.5 0 1 0 -3 0zM1108.5 558 a1.5 1.5 0 1 0 3 0 a1.5 1.5 0 1 0 -3 0zM1084.5 294 a1.5 1.5 0 1 0 3 0 a1.5 1.5 0 1 0 -3 0z" fill="black"></path><path d="M388.5 318 a1.5 1.5 0 1 0 3 0 a1.5 1.5 0 1 0 -3 0zM400.5 294 a1.5 1.5 0 1 0 3 0 a1.5 1.5 0 1 0 -3 0zM388.5 246 a1.5 1.5 0 1 0 3 0 a1.5 1.5 0 1 0 -3 0zM376.5 294 a1.5 1.5 0 1 0 3 0 a1.5 1.5 0 1 0 -3 0zM400.5 258 a1.5 1.5 0 1 0 3 0 a1.5 1.5 0 1 0 -3 0zM412.5 18 a1.5 1.5 0 1 0 3 0 a1.5 1.5 0 1 0 -3 0zM376.5 342 a1.5 1.5 0 1 0 3 0 a1.5 1.5 0 1 0 -3 0z" fill="black"></path><path d="M1144.5 462 a1.5 1.5 0 1 0 3 0 a1.5 1.5 0 1 0 -3 0zM1084.5 126 a1.5 1.5 0 1 0 3 0 a1.5 1.5 0 1 0 -3 0zM1144.5 450 a1.5 1.5 0 1 0 3 0 a1.5 1.5 0 1 0 -3 0z" fill="black"></path><path d="M352.5 714 a1.5 1.5 0 1 0 3 0 a1.5 1.5 0 1 0 -3 0zM364.5 150 a1.5 1.5 0 1 0 3 0 a1.5 1.5 0 1 0 -3 0zM340.5 738 a1.5 1.5 0 1 0 3 0 a1.5 1.5 0 1 0 -3 0zM376.5 666 a1.5 1.5 0 1 0 3 0 a1.5 1.5 0 1 0 -3 0zM400.5 570 a1.5 1.5 0 1 0 3 0 a1.5 1.5 0 1 0 -3 0zM352.5 594 a1.5 1.5 0 1 0 3 0 a1.5 1.5 0 1 0 -3 0zM400.5 534 a1.5 1.5 0 1 0 3 0 a1.5 1.5 0 1 0 -3 0zM376.5 222 a1.5 1.5 0 1 0 3 0 a1.5 1.5 0 1 0 -3 0zM376.5 642 a1.5 1.5 0 1 0 3 0 a1.5 1.5 0 1 0 -3 0zM364.5 618 a1.5 1.5 0 1 0 3 0 a1.5 1.5 0 1 0 -3 0zM400.5 498 a1.5 1.5 0 1 0 3 0 a1.5 1.5 0 1 0 -3 0zM388.5 234 a1.5 1.5 0 1 0 3 0 a1.5 1.5 0 1 0 -3 0zM352.5 462 a1.5 1.5 0 1 0 3 0 a1.5 1.5 0 1 0 -3 0zM400.5 438 a1.5 1.5 0 1 0 3 0 a1.5 1.5 0 1 0 -3 0zM376.5 210 a1.5 1.5 0 1 0 3 0 a1.5 1.5 0 1 0 -3 0zM364.5 594 a1.5 1.5 0 1 0 3 0 a1.5 1.5 0 1 0 -3 0z" fill="black"></path><path d="M1156.5 462 a1.5 1.5 0 1 0 3 0 a1.5 1.5 0 1 0 -3 0zM1132.5 294 a1.5 1.5 0 1 0 3 0 a1.5 1.5 0 1 0 -3 0zM1132.5 258 a1.5 1.5 0 1 0 3 0 a1.5 1.5 0 1 0 -3 0zM1120.5 174 a1.5 1.5 0 1 0 3 0 a1.5 1.5 0 1 0 -3 0zM1120.5 162 a1.5 1.5 0 1 0 3 0 a1.5 1.5 0 1 0 -3 0zM1144.5 438 a1.5 1.5 0 1 0 3 0 a1.5 1.5 0 1 0 -3 0z" fill="black"></path><path d="M352.5 342 a1.5 1.5 0 1 0 3 0 a1.5 1.5 0 1 0 -3 0zM364.5 138 a1.5 1.5 0 1 0 3 0 a1.5 1.5 0 1 0 -3 0zM364.5 198 a1.5 1.5 0 1 0 3 0 a1.5 1.5 0 1 0 -3 0zM364.5 126 a1.5 1.5 0 1 0 3 0 a1.5 1.5 0 1 0 -3 0zM340.5 318 a1.5 1.5 0 1 0 3 0 a1.5 1.5 0 1 0 -3 0zM352.5 258 a1.5 1.5 0 1 0 3 0 a1.5 1.5 0 1 0 -3 0zM352.5 246 a1.5 1.5 0 1 0 3 0 a1.5 1.5 0 1 0 -3 0zM352.5 234 a1.5 1.5 0 1 0 3 0 a1.5 1.5 0 1 0 -3 0z" fill="black"></path><path d="M1168.5 582 a1.5 1.5 0 1 0 3 0 a1.5 1.5 0 1 0 -3 0zM1156.5 534 a1.5 1.5 0 1 0 3 0 a1.5 1.5 0 1 0 -3 0zM1168.5 402 a1.5 1.5 0 1 0 3 0 a1.5 1.5 0 1 0 -3 0zM1180.5 498 a1.5 1.5 0 1 0 3 0 a1.5 1.5 0 1 0 -3 0zM1180.5 450 a1.5 1.5 0 1 0 3 0 a1.5 1.5 0 1 0 -3 0zM1168.5 474 a1.5 1.5 0 1 0 3 0 a1.5 1.5 0 1 0 -3 0zM1144.5 642 a1.5 1.5 0 1 0 3 0 a1.5 1.5 0 1 0 -3 0zM1132.5 210 a1.5 1.5 0 1 0 3 0 a1.5 1.5 0 1 0 -3 0zM1180.5 438 a1.5 1.5 0 1 0 3 0 a1.5 1.5 0 1 0 -3 0zM1096.5 66 a1.5 1.5 0 1 0 3 0 a1.5 1.5 0 1 0 -3 0zM1156.5 570 a1.5 1.5 0 1 0 3 0 a1.5 1.5 0 1 0 -3 0zM1132.5 198 a1.5 1.5 0 1 0 3 0 a1.5 1.5 0 1 0 -3 0zM1168.5 738 a1.5 1.5 0 1 0 3 0 a1.5 1.5 0 1 0 -3 0z" fill="black"></path><path d="M376.5 78 a1.5 1.5 0 1 0 3 0 a1.5 1.5 0 1 0 -3 0z" fill="black"></path><path d="M1180.5 558 a1.5 1.5 0 1 0 3 0 a1.5 1.5 0 1 0 -3 0zM1204.5 618 a1.5 1.5 0 1 0 3 0 a1.5 1.5 0 1 0 -3 0zM1216.5 462 a1.5 1.5 0 1 0 3 0 a1.5 1.5 0 1 0 -3 0zM1180.5 714 a1.5 1.5 0 1 0 3 0 a1.5 1.5 0 1 0 -3 0zM1180.5 426 a1.5 1.5 0 1 0 3 0 a1.5 1.5 0 1 0 -3 0zM1192.5 366 a1.5 1.5 0 1 0 3 0 a1.5 1.5 0 1 0 -3 0zM1192.5 510 a1.5 1.5 0 1 0 3 0 a1.5 1.5 0 1 0 -3 0zM1168.5 354 a1.5 1.5 0 1 0 3 0 a1.5 1.5 0 1 0 -3 0z" fill="black"></path><path d="M340.5 270 a1.5 1.5 0 1 0 3 0 a1.5 1.5 0 1 0 -3 0z" fill="black"></path><path d="M1180.5 342 a1.5 1.5 0 1 0 3 0 a1.5 1.5 0 1 0 -3 0zM1192.5 354 a1.5 1.5 0 1 0 3 0 a1.5 1.5 0 1 0 -3 0zM1180.5 330 a1.5 1.5 0 1 0 3 0 a1.5 1.5 0 1 0 -3 0zM1156.5 102 a1.5 1.5 0 1 0 3 0 a1.5 1.5 0 1 0 -3 0zM1168.5 150 a1.5 1.5 0 1 0 3 0 a1.5 1.5 0 1 0 -3 0zM1204.5 342 a1.5 1.5 0 1 0 3 0 a1.5 1.5 0 1 0 -3 0zM1192.5 258 a1.5 1.5 0 1 0 3 0 a1.5 1.5 0 1 0 -3 0zM1192.5 234 a1.5 1.5 0 1 0 3 0 a1.5 1.5 0 1 0 -3 0z" fill="black"></path><path d="M316.5 618 a1.5 1.5 0 1 0 3 0 a1.5 1.5 0 1 0 -3 0zM292.5 522 a1.5 1.5 0 1 0 3 0 a1.5 1.5 0 1 0 -3 0zM328.5 606 a1.5 1.5 0 1 0 3 0 a1.5 1.5 0 1 0 -3 0zM364.5 630 a1.5 1.5 0 1 0 3 0 a1.5 1.5 0 1 0 -3 0zM304.5 438 a1.5 1.5 0 1 0 3 0 a1.5 1.5 0 1 0 -3 0zM328.5 414 a1.5 1.5 0 1 0 3 0 a1.5 1.5 0 1 0 -3 0zM292.5 270 a1.5 1.5 0 1 0 3 0 a1.5 1.5 0 1 0 -3 0zM292.5 582 a1.5 1.5 0 1 0 3 0 a1.5 1.5 0 1 0 -3 0zM328.5 570 a1.5 1.5 0 1 0 3 0 a1.5 1.5 0 1 0 -3 0zM304.5 342 a1.5 1.5 0 1 0 3 0 a1.5 1.5 0 1 0 -3 0zM328.5 330 a1.5 1.5 0 1 0 3 0 a1.5 1.5 0 1 0 -3 0zM316.5 114 a1.5 1.5 0 1 0 3 0 a1.5 1.5 0 1 0 -3 0zM304.5 186 a1.5 1.5 0 1 0 3 0 a1.5 1.5 0 1 0 -3 0zM292.5 654 a1.5 1.5 0 1 0 3 0 a1.5 1.5 0 1 0 -3 0z" fill="black"></path></mask></defs></svg>