<svg id="visual" viewBox="0 0 100 100" width="100%" height="100%" xmlns="http://www.w3.org/2000/svg" xmlns:xlink="http://www.w3.org/1999/xlink" version="1.1"><rect x="0" y="0" width="100%" height="100%" fill="#ffffff"></rect><path d="M0 1125L35.2 1121.7C70.3 1118.3 140.7 1111.7 211 1124.7C281.3 1137.7 351.7 1170.3 422 1187.7C492.3 1205 562.7 1207 633 1238.7C703.3 1270.3 773.7 1331.7 844.2 1327.8C914.7 1324 985.3 1255 1055.8 1259.5C1126.3 1264 1196.7 1342 1267 1381.5C1337.3 1421 1407.7 1422 1478 1406.3C1548.3 1390.7 1618.7 1358.3 1689 1337.3C1759.3 1316.3 1829.7 1306.7 1864.8 1301.8L1900 1297L1900 1861L1864.8 1861C1829.7 1861 1759.3 1861 1689 1861C1618.7 1861 1548.3 1861 1478 1861C1407.7 1861 1337.3 1861 1267 1861C1196.7 1861 1126.3 1861 1055.8 1861C985.3 1861 914.7 1861 844.2 1861C773.7 1861 703.3 1861 633 1861C562.7 1861 492.3 1861 422 1861C351.7 1861 281.3 1861 211 1861C140.7 1861 70.3 1861 35.2 1861L0 1861Z" fill="#860e0a"></path><path d="M0 1500L35.2 1488.8C70.3 1477.7 140.7 1455.3 211 1428.5C281.3 1401.7 351.7 1370.3 422 1383.8C492.3 1397.3 562.7 1455.7 633 1453C703.3 1450.3 773.7 1386.7 844.2 1349.2C914.7 1311.7 985.3 1300.3 1055.8 1320.3C1126.3 1340.3 1196.7 1391.7 1267 1398.3C1337.3 1405 1407.7 1367 1478 1355.8C1548.3 1344.7 1618.7 1360.3 1689 1391.8C1759.3 1423.3 1829.7 1470.7 1864.8 1494.3L1900 1518L1900 1861L1864.8 1861C1829.7 1861 1759.3 1861 1689 1861C1618.7 1861 1548.3 1861 1478 1861C1407.7 1861 1337.3 1861 1267 1861C1196.7 1861 1126.3 1861 1055.8 1861C985.3 1861 914.7 1861 844.2 1861C773.7 1861 703.3 1861 633 1861C562.7 1861 492.3 1861 422 1861C351.7 1861 281.3 1861 211 1861C140.7 1861 70.3 1861 35.2 1861L0 1861Z" fill="#a22b21"></path><path d="M0 1469L35.2 1475.7C70.3 1482.3 140.7 1495.7 211 1480C281.3 1464.3 351.7 1419.7 422 1399.8C492.3 1380 562.7 1385 633 1406.3C703.3 1427.7 773.7 1465.3 844.2 1488.5C914.7 1511.7 985.3 1520.3 1055.8 1504.5C1126.3 1488.7 1196.7 1448.3 1267 1449C1337.3 1449.7 1407.7 1491.3 1478 1516.2C1548.3 1541 1618.7 1549 1689 1526.2C1759.3 1503.3 1829.7 1449.7 1864.8 1422.8L1900 1396L1900 1861L1864.8 1861C1829.7 1861 1759.3 1861 1689 1861C1618.7 1861 1548.3 1861 1478 1861C1407.7 1861 1337.3 1861 1267 1861C1196.7 1861 1126.3 1861 1055.8 1861C985.3 1861 914.7 1861 844.2 1861C773.7 1861 703.3 1861 633 1861C562.7 1861 492.3 1861 422 1861C351.7 1861 281.3 1861 211 1861C140.7 1861 70.3 1861 35.2 1861L0 1861Z" fill="#bf4337"></path><path d="M0 1562L35.2 1563.2C70.3 1564.3 140.7 1566.7 211 1574.2C281.3 1581.7 351.7 1594.3 422 1600C492.3 1605.7 562.7 1604.3 633 1593.7C703.3 1583 773.7 1563 844.2 1576.2C914.7 1589.3 985.3 1635.7 1055.8 1645.3C1126.3 1655 1196.7 1628 1267 1610.8C1337.3 1593.7 1407.7 1586.3 1478 1601.3C1548.3 1616.3 1618.7 1653.7 1689 1652.3C1759.3 1651 1829.7 1611 1864.8 1591L1900 1571L1900 1861L1864.8 1861C1829.7 1861 1759.3 1861 1689 1861C1618.7 1861 1548.3 1861 1478 1861C1407.7 1861 1337.3 1861 1267 1861C1196.7 1861 1126.3 1861 1055.8 1861C985.3 1861 914.7 1861 844.2 1861C773.7 1861 703.3 1861 633 1861C562.7 1861 492.3 1861 422 1861C351.7 1861 281.3 1861 211 1861C140.7 1861 70.3 1861 35.2 1861L0 1861Z" fill="#dc5a4f"></path><path d="M0 1765L35.2 1764.2C70.3 1763.3 140.7 1761.7 211 1745.5C281.3 1729.3 351.7 1698.7 422 1677.5C492.3 1656.3 562.7 1644.7 633 1661.8C703.3 1679 773.7 1725 844.2 1744.2C914.7 1763.3 985.3 1755.7 1055.8 1739.2C1126.3 1722.7 1196.7 1697.3 1267 1694.3C1337.3 1691.3 1407.7 1710.7 1478 1725.7C1548.3 1740.7 1618.7 1751.3 1689 1747C1759.3 1742.7 1829.7 1723.3 1864.8 1713.7L1900 1704L1900 1861L1864.8 1861C1829.7 1861 1759.3 1861 1689 1861C1618.7 1861 1548.3 1861 1478 1861C1407.7 1861 1337.3 1861 1267 1861C1196.7 1861 1126.3 1861 1055.8 1861C985.3 1861 914.7 1861 844.2 1861C773.7 1861 703.3 1861 633 1861C562.7 1861 492.3 1861 422 1861C351.7 1861 281.3 1861 211 1861C140.7 1861 70.3 1861 35.2 1861L0 1861Z" fill="#fa7268"></path></svg>