<?xml version="1.0" standalone="no"?><svg xmlns="http://www.w3.org/2000/svg" viewBox="0 0 1440 320"><path fill="#A31717" fill-opacity="1" d="M0,288L26.7,272C53.3,256,107,224,160,224C213.3,224,267,256,320,272C373.3,288,427,288,480,261.3C533.3,235,587,181,640,144C693.3,107,747,85,800,80C853.3,75,907,85,960,106.7C1013.3,128,1067,160,1120,181.3C1173.3,203,1227,213,1280,197.3C1333.3,181,1387,139,1413,117.3L1440,96L1440,0L1413.3,0C1386.7,0,1333,0,1280,0C1226.7,0,1173,0,1120,0C1066.7,0,1013,0,960,0C906.7,0,853,0,800,0C746.7,0,693,0,640,0C586.7,0,533,0,480,0C426.7,0,373,0,320,0C266.7,0,213,0,160,0C106.7,0,53,0,27,0L0,0Z"></path></svg>